<svg xmlns="http://www.w3.org/2000/svg" height="105px" viewBox="0 0 221.9 106" enable-background="new 0 0 221.9 106" xml:space="preserve" data-fc-idx="0">
<g>
	<polygon fill="#002147" stroke="#FFFFFF" stroke-miterlimit="10" points="116.4,105.5 221.4,105.5 221.4,0.5 116.4,0.5 &#9;" style="fill: rgb(0, 33, 71) !important; stroke: rgb(255, 255, 255) !important;"/>
	<path fill="#FFFFFF" d="M139.4,87.8c0,4-3.1,7-7,7c-4,0-7-3-7-6.8c0-4,3.1-7,7-7C136.4,81,139.4,83.9,139.4,87.8z M137.2,87.8&#10;&#9;&#9;c0-3.7-1.8-6.2-4.8-6.2c-3.3,0-4.8,3.1-4.8,6.2c0,3.7,1.8,6.2,4.8,6.2C135.7,94.1,137.2,91,137.2,87.8z" style="fill: rgb(255, 255, 255) !important;"/>
	<path fill="#FFFFFF" d="M182.2,87.8c0,4-3.1,7-7,7c-4,0-7-3-7-6.8c0-4,3.1-7,7-7C179.1,81,182.2,83.9,182.2,87.8z M179.9,87.8&#10;&#9;&#9;c0-3.7-1.8-6.2-4.8-6.2c-3.3,0-4.8,3.1-4.8,6.2c0,3.7,1.8,6.2,4.8,6.2C178.4,94.1,179.9,91,179.9,87.8z" style="fill: rgb(255, 255, 255) !important;"/>
	<path fill="#FFFFFF" d="M187.6,87.9h1.7c2.5,0,3.1-1.6,3.1-3.1c0-1.1-0.5-2.2-1.7-2.7c-0.6-0.3-1.2-0.3-2-0.3h-1V87.9z M190.6,90.1&#10;&#9;&#9;c-0.8-1.1-1.1-1.5-2-1.5h-1v4.5c0,0.4,0.1,0.6,0.6,0.6l1.5,0.3v0.5h-6V94l1.4-0.3c0.4-0.1,0.6-0.3,0.6-0.6V82.6&#10;&#9;&#9;c0-0.4-0.1-0.5-0.6-0.6l-1.4-0.3v-0.5h5.8c1.2,0,2.1,0.1,2.8,0.4c1.4,0.6,2.3,1.9,2.3,3.2c0,1.6-1.2,3-3.3,3.5v0.1&#10;&#9;&#9;c0.4,0.2,0.6,0.4,2.1,2.3l1.8,2.4c0.3,0.4,0.6,0.6,1,0.7l1.3,0.3v0.5h-3.2c-0.4,0-0.6-0.1-0.9-0.6L190.6,90.1L190.6,90.1z" style="fill: rgb(255, 255, 255) !important;"/>
	<path fill="#FFFFFF" d="M164.5,85.7h0.6v4.4h-0.6l-0.3-1.3c-0.1-0.5-0.4-0.7-0.9-0.7h-3.2v4.9c0,0.4,0.1,0.6,0.6,0.6l1.5,0.3v0.5&#10;&#9;&#9;h-6V94l1.4-0.3c0.4-0.1,0.6-0.3,0.6-0.6V82.6c0-0.4-0.1-0.5-0.6-0.6l-1.4-0.3v-0.5h10.1v3.3h-0.6l-0.6-2c-0.1-0.5-0.4-0.7-0.8-0.7&#10;&#9;&#9;h-4.2v5.7h3.2c0.4,0,0.7-0.2,0.9-0.7L164.5,85.7L164.5,85.7z" style="fill: rgb(255, 255, 255) !important;"/>
	<path fill="#FFFFFF" d="M198.6,94.5V94l1.4-0.3c0.4-0.1,0.6-0.3,0.6-0.6V82.6c0-0.4-0.1-0.5-0.6-0.6l-1.4-0.3v-0.5h6.3&#10;&#9;&#9;c1.7,0,2.9,0.2,3.9,0.7c2.5,1.1,3.7,3.6,3.7,6.1c0,2.4-0.9,4.6-3.1,5.8c-1,0.6-2.5,0.8-4.4,0.8H198.6z M202.5,81.8v11.5&#10;&#9;&#9;c0,0.5,0.1,0.6,0.6,0.6h1.6c1.6,0,2.7-0.2,3.5-0.8c1.4-1,2-2.8,2-5.1c0-2.3-0.6-4.5-2.5-5.6c-0.8-0.4-1.8-0.6-3.3-0.6L202.5,81.8&#10;&#9;&#9;L202.5,81.8z" style="fill: rgb(255, 255, 255) !important;"/>
	<path fill="#FFFFFF" d="M144.7,94v0.5H140V94l1.2-0.3c0.4-0.1,0.7-0.3,1-0.6l4.1-5.1l-4.1-5.4c-0.3-0.4-0.6-0.6-1-0.7l-1.1-0.3&#10;&#9;&#9;v-0.5h5.8v0.5l-1.3,0.3c-0.4,0.1-0.3,0.3-0.1,0.6l3,4.3h0.1l3.1-4.3c0.2-0.3,0.3-0.4-0.1-0.5l-1.2-0.3v-0.5h4.7v0.5l-1.2,0.3&#10;&#9;&#9;c-0.4,0.1-0.7,0.3-1,0.6l-3.8,4.9l4.3,5.7c0.3,0.4,0.6,0.6,1,0.7l1.1,0.3v0.5h-5.8V94l1.3-0.3c0.4-0.1,0.4-0.2,0.1-0.5l-3.3-4.6&#10;&#9;&#9;h-0.1l-3.3,4.6c-0.2,0.3-0.3,0.4,0.1,0.5L144.7,94L144.7,94z" style="fill: rgb(255, 255, 255) !important;"/>
	<path fill="#FFFFFF" d="M130.6,74.9c-0.4,0.4-0.9,0.6-1.7,0.6c-0.7,0-1.3-0.2-1.7-0.6c-0.6-0.6-0.5-1.3-0.5-2.1v-3.7h0.8v4&#10;&#9;&#9;c0,0.5,0,1,0.4,1.4c0.3,0.3,0.7,0.4,1.2,0.4c0.5,0,0.8-0.2,1.1-0.4c0.4-0.4,0.4-0.9,0.4-2v-3.3h0.7v3.1&#10;&#9;&#9;C131.2,73.4,131.3,74.3,130.6,74.9L130.6,74.9z" style="fill: rgb(255, 255, 255) !important;"/>
	<polygon fill="#FFFFFF" points="137.4,75.4 134.3,70.2 134.3,75.4 133.6,75.4 133.6,69.1 134.4,69.1 137.5,74.3 137.4,69.1 &#10;&#9;&#9;138.1,69.1 138.1,75.4 &#9;" style="fill: rgb(255, 255, 255) !important;"/>
	<polygon fill="#FFFFFF" points="140.8,75.4 141.5,75.4 141.5,69.1 140.8,69.1 &#9;" style="fill: rgb(255, 255, 255) !important;"/>
	<polygon fill="#FFFFFF" points="146.3,75.4 145.4,75.4 143.2,69.1 144,69.1 145.8,74.7 147.7,69.1 148.5,69.1 &#9;" style="fill: rgb(255, 255, 255) !important;"/>
	<polygon fill="#FFFFFF" points="150.2,75.4 150.2,69.1 153.6,69.1 153.6,69.7 150.9,69.7 150.9,71.8 153.5,71.8 153.5,72.4 &#10;&#9;&#9;150.9,72.4 150.9,74.8 153.7,74.8 153.7,75.4 &#9;" style="fill: rgb(255, 255, 255) !important;"/>
	<path fill="#FFFFFF" d="M158.5,70c-0.4-0.4-0.8-0.3-1.3-0.3h-0.7v2.4h0.3c0.6,0,1.3,0,1.8-0.4c0.2-0.2,0.3-0.5,0.3-0.8&#10;&#9;&#9;C158.8,70.5,158.6,70.2,158.5,70L158.5,70z M159.2,75.4l-0.7-1.6c-0.4-1-0.7-1.1-1.6-1.1h-0.4v2.7h-0.7v-6.3h1.4c0.8,0,1.5,0,2,0.5&#10;&#9;&#9;c0.3,0.3,0.5,0.7,0.5,1.3c0,0.4-0.1,0.8-0.4,1.1c-0.2,0.2-0.6,0.5-1,0.5c0.2,0,0.4,0.1,0.5,0.3c0.2,0.2,0.3,0.4,0.5,0.8l0.8,1.9&#10;&#9;&#9;H159.2z" style="fill: rgb(255, 255, 255) !important;"/>
	<polygon fill="#FFFFFF" points="167.4,75.4 168.1,75.4 168.1,69.1 167.4,69.1 &#9;" style="fill: rgb(255, 255, 255) !important;"/>
	<polygon fill="#FFFFFF" points="172.4,69.7 172.4,75.4 171.7,75.4 171.7,69.7 169.8,69.7 169.8,69.1 174.3,69.1 174.3,69.7 &#9;" style="fill: rgb(255, 255, 255) !important;"/>
	<polygon fill="#FFFFFF" points="177.9,72.9 177.9,75.4 177.2,75.4 177.2,72.9 175.2,69.1 176.1,69.1 177.6,72.1 179.1,69.1 &#10;&#9;&#9;180,69.1 &#9;" style="fill: rgb(255, 255, 255) !important;"/>
	<path fill="#FFFFFF" d="M187,69.6c-1.2,0-2,1-2,2.6c0,1.6,0.9,2.6,2.1,2.6c1.3,0,2.1-1.1,2.1-2.7C189.1,70.6,188.3,69.6,187,69.6z&#10;&#9;&#9; M187,75.5c-1.6,0-2.8-1.3-2.8-3.2c0-1.9,1.2-3.3,2.9-3.3c1.7,0,2.8,1.3,2.8,3.2C189.9,74.2,188.7,75.5,187,75.5L187,75.5z" style="fill: rgb(255, 255, 255) !important;"/>
	<polygon fill="#FFFFFF" points="192.7,69.7 192.7,71.8 195.2,71.8 195.2,72.4 192.7,72.4 192.7,75.4 192,75.4 192,69.1 195.3,69.1 &#10;&#9;&#9;195.3,69.7 &#9;" style="fill: rgb(255, 255, 255) !important;"/>
	<path fill="#FFFFFF" d="M161.5,70.6c0-1,0.8-1.7,1.9-1.7c1.2,0,1.7,0.6,1.8,0.7l-0.4,0.4c-0.1-0.1-0.6-0.5-1.3-0.5&#10;&#9;&#9;c-0.8,0-1.3,0.4-1.3,1c0,0.3,0.1,0.5,0.3,0.6c0.2,0.2,0.5,0.3,0.9,0.5c0.4,0.2,1,0.4,1.4,0.8c0.3,0.3,0.5,0.6,0.5,1.1&#10;&#9;&#9;c0,1-0.7,1.8-2,1.8c-1.1,0-1.8-0.6-1.9-0.7l0.3-0.5c0.2,0.1,0.9,0.5,1.5,0.5c1,0,1.3-0.5,1.3-1.1c0-0.3-0.1-0.5-0.3-0.7&#10;&#9;&#9;c-0.3-0.3-0.7-0.5-1.2-0.7c-0.4-0.2-0.8-0.4-1.1-0.7C161.7,71.5,161.5,71.1,161.5,70.6L161.5,70.6z" style="fill: rgb(255, 255, 255) !important;"/>
	<path fill="#FFFFFF" d="M190.5,26.4c0-0.8-0.3-1.4-0.8-1.8c-0.4-0.2-0.9-0.3-1.5-0.3l-4.4,0v8.9h4.8c1.1,0,1.8,0.2,1.8,1.2h0.1&#10;&#9;&#9;L190.5,26.4L190.5,26.4z" style="fill: rgb(255, 255, 255) !important;"/>
	<path fill="#FFFFFF" d="M191.1,26.4c0-0.8,0.3-1.4,0.8-1.8c0.4-0.2,0.9-0.3,1.5-0.3l4.5,0v8.9H193c-1.1,0-1.8,0.2-1.8,1.2h-0.1&#10;&#9;&#9;L191.1,26.4L191.1,26.4z" style="fill: rgb(255, 255, 255) !important;"/>
	<path fill="#FFFFFF" d="M198.8,25v9.4H192l-0.1,0.2c-0.1,0.3-0.3,0.6-1.1,0.6c-0.7,0-1-0.3-1.1-0.6l-0.1-0.2h-6.8V25h-0.6v0.3&#10;&#9;&#9;l-0.6-0.2c-0.1-0.2-0.3-0.4-0.5-0.4c-0.3,0-0.6,0.3-0.6,0.6c0,0.3,0.3,0.6,0.6,0.6c0.1,0,0.3-0.1,0.4-0.1l0.8,0.2v0.8l-0.6-0.1&#10;&#9;&#9;c-0.1-0.2-0.3-0.3-0.5-0.3c-0.3,0-0.6,0.3-0.6,0.6c0,0.3,0.3,0.6,0.6,0.6c0.2,0,0.3-0.1,0.4-0.2l0.7,0.1v0.8l-0.6,0&#10;&#9;&#9;c-0.1-0.2-0.3-0.3-0.5-0.3c-0.3,0-0.6,0.3-0.6,0.6c0,0.3,0.3,0.6,0.6,0.6c0.2,0,0.4-0.1,0.5-0.2l0.6,0v0.8l-0.6,0&#10;&#9;&#9;c-0.1-0.1-0.3-0.2-0.5-0.2c-0.3,0-0.6,0.3-0.6,0.6c0,0.3,0.3,0.6,0.6,0.6c0.2,0,0.4-0.1,0.5-0.3l0.6,0v0.8l-0.7,0.1&#10;&#9;&#9;c-0.1-0.1-0.2-0.2-0.4-0.2c-0.3,0-0.6,0.3-0.6,0.6c0,0.3,0.3,0.6,0.6,0.6c0.2,0,0.4-0.1,0.5-0.3l0.6-0.1v0.8l-0.7,0.2&#10;&#9;&#9;c-0.1-0.1-0.2-0.1-0.4-0.1c-0.3,0-0.6,0.3-0.6,0.6c0,0.3,0.3,0.6,0.6,0.6c0.3,0,0.5-0.2,0.5-0.4l0.6-0.2v0.7l-0.8,0.4&#10;&#9;&#9;c-0.1-0.1-0.2-0.1-0.3-0.1c-0.3,0-0.6,0.3-0.6,0.6c0,0.3,0.3,0.6,0.6,0.6c0.3,0,0.5-0.2,0.6-0.5l0.6-0.2V35h7.1&#10;&#9;&#9;c0.3,0.5,0.8,0.8,1.5,0.8c0.8,0,1.3-0.3,1.5-0.8h7.1V25L198.8,25L198.8,25z" style="fill: rgb(255, 255, 255) !important;"/>
	<path fill="#FFFFFF" d="M186.2,21.8c-1.4,0-2.6,0.2-2.6,0.5c0,0.3,1.2,0.5,2.6,0.5c1.4,0,2.6-0.2,2.6-0.5&#10;&#9;&#9;C188.8,22.1,187.6,21.8,186.2,21.8z" style="fill: rgb(255, 255, 255) !important;"/>
	<path fill="#FFFFFF" d="M189.7,18.7l-1.5,1l0,0.1l0.4,0.2c0.1,0,0.1,0.1,0,0.1l-0.9,0.8l-0.1,0l-0.7-1c0-0.1,0-0.1,0.1-0.1l0.4-0.1&#10;&#9;&#9;v-0.1l-1.2-1.6h-0.2l-1.2,1.6v0.1l0.4,0.1c0.1,0,0.1,0.1,0.1,0.1l-0.7,1l-0.1,0l-0.9-0.8c0,0,0-0.1,0-0.1l0.4-0.2l0-0.1l-1.6-1&#10;&#9;&#9;l-0.1,0l0.9,2.8c0.5-0.2,1.5-0.4,2.8-0.4c1.2,0,2.3,0.2,2.8,0.4l0.9-2.8L189.7,18.7L189.7,18.7z" style="fill: rgb(255, 255, 255) !important;"/>
	<path fill="#FFFFFF" d="M190.8,40.5c-1.4,0-2.6,0.2-2.6,0.5c0,0.3,1.2,0.5,2.6,0.5c1.4,0,2.6-0.2,2.6-0.5&#10;&#9;&#9;C193.4,40.7,192.2,40.5,190.8,40.5z" style="fill: rgb(255, 255, 255) !important;"/>
	<path fill="#FFFFFF" d="M194.4,37.4l-1.5,1l0,0.1l0.4,0.2c0.1,0,0.1,0.1,0,0.1l-0.9,0.8l-0.1,0l-0.7-1c0-0.1,0-0.1,0.1-0.1l0.4-0.1&#10;&#9;&#9;v-0.1l-1.2-1.6h-0.2l-1.2,1.6v0.1l0.4,0.1c0.1,0,0.1,0.1,0.1,0.1l-0.7,1l-0.1,0l-0.9-0.8c0,0,0-0.1,0-0.1l0.4-0.2l0-0.1l-1.6-1&#10;&#9;&#9;l-0.1,0l0.9,2.8c0.5-0.2,1.5-0.4,2.8-0.4c1.2,0,2.3,0.2,2.8,0.4l0.9-2.8L194.4,37.4L194.4,37.4z" style="fill: rgb(255, 255, 255) !important;"/>
	<path fill="#FFFFFF" d="M195.4,21.8c-1.4,0-2.6,0.2-2.6,0.5c0,0.3,1.2,0.5,2.6,0.5c1.4,0,2.6-0.2,2.6-0.5&#10;&#9;&#9;C198,22.1,196.9,21.8,195.4,21.8z" style="fill: rgb(255, 255, 255) !important;"/>
	<path fill="#FFFFFF" d="M199,18.7l-1.5,1l0,0.1l0.4,0.2c0.1,0,0.1,0.1,0,0.1l-0.9,0.8l-0.1,0l-0.7-1c0-0.1,0-0.1,0.1-0.1l0.4-0.1&#10;&#9;&#9;v-0.1l-1.2-1.6h-0.2l-1.2,1.6v0.1l0.4,0.1c0.1,0,0.1,0.1,0,0.1l-0.7,1l-0.1,0l-0.9-0.8c0,0,0-0.1,0-0.1l0.4-0.1l0-0.1l-1.6-1&#10;&#9;&#9;l-0.1,0l0.9,2.8c0.5-0.2,1.5-0.4,2.8-0.4c1.2,0,2.3,0.2,2.8,0.4l0.9-2.8L199,18.7L199,18.7z" style="fill: rgb(255, 255, 255) !important;"/>
	<path fill="#002147" d="M184.9,25.7c0.2,0,0.4,0,0.6,0.2c0.1,0.1,0.2,0.2,0.2,0.4c0,0.5-0.4,0.7-0.8,0.7h-0.5v-0.1&#10;&#9;&#9;c0.1,0,0.2,0,0.2-0.2v-0.7c0-0.2,0-0.2-0.1-0.2v-0.1L184.9,25.7L184.9,25.7z M184.8,26.7c0,0.2,0,0.2,0.1,0.2&#10;&#9;&#9;c0.2,0,0.3-0.2,0.3-0.5c0-0.4-0.2-0.5-0.4-0.5c0,0-0.1,0-0.1,0c0,0,0,0,0,0.1L184.8,26.7L184.8,26.7z" style="fill: rgb(0, 33, 71) !important;"/>
	<path fill="#002147" d="M187.2,26.4c0,0.4-0.3,0.7-0.7,0.7c-0.4,0-0.7-0.3-0.7-0.7c0-0.3,0.2-0.7,0.7-0.7&#10;&#9;&#9;C186.9,25.7,187.2,26,187.2,26.4L187.2,26.4z M186.2,26.3c0,0.4,0.1,0.6,0.3,0.6c0.2,0,0.3-0.2,0.3-0.5c0-0.4-0.1-0.6-0.3-0.6&#10;&#9;&#9;C186.3,25.8,186.2,26,186.2,26.3L186.2,26.3z" style="fill: rgb(0, 33, 71) !important;"/>
	<path fill="#002147" d="M188.9,25.7L188.9,25.7c-0.2,0.1-0.2,0.1-0.2,0.3l0,0.7c0,0.2,0,0.2,0.2,0.2V27h-0.6v-0.1&#10;&#9;&#9;c0.1,0,0.2,0,0.2-0.2l0-0.7h0l-0.4,1h-0.1l-0.4-0.9h0l0,0.4c0,0.2,0,0.3,0,0.3c0,0.1,0.1,0.1,0.2,0.1V27h-0.5v-0.1&#10;&#9;&#9;c0.1,0,0.1,0,0.1-0.1c0-0.1,0-0.2,0-0.3l0-0.4c0-0.2,0-0.3-0.2-0.3v-0.1h0.5l0.3,0.8l0.3-0.8H188.9L188.9,25.7z" style="fill: rgb(0, 33, 71) !important;"/>
	<path fill="#002147" d="M189.5,26.7c0,0.2,0,0.2,0.2,0.2V27H189v-0.1c0.1,0,0.2,0,0.2-0.2v-0.7c0-0.2,0-0.2-0.2-0.2v-0.1h0.6v0.1&#10;&#9;&#9;c-0.1,0-0.2,0-0.2,0.2V26.7z" style="fill: rgb(0, 33, 71) !important;"/>
	<path fill="#002147" d="M186.4,29.4h-0.2l-0.7-0.9h0v0.4c0,0.2,0,0.3,0,0.4c0,0.1,0.1,0.1,0.2,0.1v0.1h-0.5v-0.1&#10;&#9;&#9;c0.1,0,0.1,0,0.1-0.1c0-0.1,0-0.2,0-0.4v-0.4c0-0.1,0-0.2,0-0.2c0,0-0.1-0.1-0.1-0.1v-0.1h0.4l0.7,0.8h0v-0.3c0-0.2,0-0.3,0-0.4&#10;&#9;&#9;c0-0.1-0.1-0.1-0.2-0.1v-0.1h0.5v0.1c-0.1,0-0.2,0-0.2,0.1c0,0.1,0,0.2,0,0.4L186.4,29.4L186.4,29.4z" style="fill: rgb(0, 33, 71) !important;"/>
	<path fill="#002147" d="M187.2,29.4c-0.1-0.4-0.3-0.8-0.4-1c-0.1-0.2-0.1-0.2-0.2-0.2v-0.1h0.6v0.1l-0.1,0c-0.1,0-0.1,0-0.1,0.1&#10;&#9;&#9;c0,0.1,0.2,0.5,0.3,0.7c0.1-0.2,0.2-0.5,0.2-0.6c0-0.1,0-0.1-0.1-0.2l-0.1,0v-0.1h0.5v0.1c-0.1,0-0.1,0-0.2,0.2c0,0-0.3,0.6-0.4,1&#10;&#9;&#9;L187.2,29.4L187.2,29.4z" style="fill: rgb(0, 33, 71) !important;"/>
	<path fill="#002147" d="M188,29c0,0.1,0.2,0.3,0.3,0.3c0.1,0,0.2-0.1,0.2-0.2c0-0.1-0.1-0.2-0.2-0.2l0,0c-0.2-0.1-0.3-0.2-0.3-0.4&#10;&#9;&#9;c0-0.2,0.2-0.4,0.5-0.4c0.1,0,0.1,0,0.2,0c0,0,0.1,0,0.1,0c0,0.1,0,0.2,0,0.3l-0.1,0c0-0.1-0.1-0.3-0.3-0.3c-0.1,0-0.2,0.1-0.2,0.2&#10;&#9;&#9;c0,0.1,0.1,0.2,0.2,0.2l0,0c0.2,0.1,0.3,0.2,0.3,0.4c0,0.2-0.2,0.4-0.5,0.4c-0.1,0-0.2,0-0.2,0c-0.1,0-0.1,0-0.1,0&#10;&#9;&#9;C188,29.2,188,29.1,188,29L188,29L188,29z" style="fill: rgb(0, 33, 71) !important;"/>
	<path fill="#002147" d="M185.5,31.4c0,0.2,0,0.2,0.2,0.2v0.1H185v-0.1c0.1,0,0.2,0,0.2-0.2v-0.6c0-0.2,0-0.2-0.2-0.2v-0.1h0.6v0.1&#10;&#9;&#9;c-0.1,0-0.2,0-0.2,0.2V31.4z" style="fill: rgb(0, 33, 71) !important;"/>
	<path fill="#002147" d="M186.3,31.4c0,0.1,0,0.2,0,0.2c0,0,0.1,0,0.1,0c0.1,0,0.1,0,0.2-0.1c0,0,0.1-0.1,0.1-0.2l0.1,0&#10;&#9;&#9;c0,0.1-0.1,0.3-0.1,0.3h-1v-0.1c0.1,0,0.2,0,0.2-0.2v-0.7c0-0.2,0-0.2-0.1-0.2v-0.1h0.6v0.1c-0.1,0-0.2,0-0.2,0.2L186.3,31.4&#10;&#9;&#9;L186.3,31.4z" style="fill: rgb(0, 33, 71) !important;"/>
	<path fill="#002147" d="M187.4,31.4c0,0.1,0,0.2,0,0.2c0,0,0.1,0,0.1,0c0.1,0,0.1,0,0.2-0.1c0,0,0.1-0.1,0.1-0.2l0.1,0&#10;&#9;&#9;c0,0.1-0.1,0.3-0.1,0.3h-1v-0.1c0.1,0,0.2,0,0.2-0.2v-0.7c0-0.2,0-0.2-0.1-0.2v-0.1h0.6v0.1c-0.1,0-0.2,0-0.2,0.2V31.4z" style="fill: rgb(0, 33, 71) !important;"/>
	<path fill="#002147" d="M188.3,31.8c-0.1-0.4-0.3-0.8-0.4-1c-0.1-0.2-0.1-0.2-0.2-0.2v-0.1h0.6v0.1l-0.1,0c-0.1,0-0.1,0-0.1,0.1&#10;&#9;&#9;c0,0.1,0.2,0.5,0.3,0.7c0.1-0.2,0.2-0.5,0.2-0.6c0-0.1,0-0.1-0.1-0.2l-0.1,0v-0.1h0.5v0.1c-0.1,0-0.1,0-0.2,0.2c0,0-0.3,0.6-0.4,1&#10;&#9;&#9;H188.3z" style="fill: rgb(0, 33, 71) !important;"/>
	<path fill="#002147" d="M193.6,25.7L193.6,25.7c-0.1,0.1-0.2,0.1-0.2,0.3l0,0.7c0,0.2,0,0.2,0.2,0.2V27H193v-0.1&#10;&#9;&#9;c0.1,0,0.2,0,0.2-0.2l0-0.7h0l-0.4,1h-0.1l-0.4-0.9h0l0,0.4c0,0.2,0,0.3,0,0.3c0,0.1,0.1,0.1,0.2,0.1V27H192v-0.1&#10;&#9;&#9;c0.1,0,0.1,0,0.1-0.1c0-0.1,0-0.2,0-0.3l0-0.4c0-0.2,0-0.3-0.2-0.3v-0.1h0.5l0.3,0.8l0.3-0.8H193.6z" style="fill: rgb(0, 33, 71) !important;"/>
	<path fill="#002147" d="M194.2,26.7c0,0.2,0,0.2,0.2,0.2V27h-0.6v-0.1c0.1,0,0.2,0,0.2-0.2v-0.7c0-0.2,0-0.2-0.2-0.2v-0.1h0.6v0.1&#10;&#9;&#9;c-0.1,0-0.2,0-0.2,0.2V26.7z" style="fill: rgb(0, 33, 71) !important;"/>
	<path fill="#002147" d="M195.7,27h-0.2l-0.7-0.9h0v0.4c0,0.2,0,0.3,0,0.4c0,0.1,0.1,0.1,0.2,0.1V27h-0.5v-0.1c0.1,0,0.1,0,0.1-0.1&#10;&#9;&#9;c0-0.1,0-0.2,0-0.4v-0.4c0-0.1,0-0.2,0-0.2c0,0-0.1-0.1-0.2-0.1v-0.1h0.4l0.7,0.8h0v-0.3c0-0.2,0-0.3,0-0.4c0-0.1-0.1-0.1-0.2-0.1&#10;&#9;&#9;v-0.1h0.5v0.1c-0.1,0-0.1,0-0.2,0.1c0,0.1,0,0.2,0,0.4L195.7,27L195.7,27z" style="fill: rgb(0, 33, 71) !important;"/>
	<path fill="#002147" d="M196.5,26.9L196.5,26.9c0.1,0,0.1,0,0.1-0.1l-0.1-0.2h-0.3l-0.1,0.2c0,0.1,0,0.1,0.1,0.1l0.1,0V27h-0.5&#10;&#9;&#9;v-0.1c0.1,0,0.1,0,0.2-0.2l0.4-1l0.1,0l0.1,0.4c0.1,0.2,0.2,0.5,0.2,0.7c0.1,0.2,0.1,0.2,0.2,0.2V27L196.5,26.9L196.5,26.9&#10;&#9;&#9;L196.5,26.9z M196.3,26.5h0.3l-0.1-0.4h0L196.3,26.5z" style="fill: rgb(0, 33, 71) !important;"/>
	<path fill="#002147" d="M193.6,29.1c0,0.2,0,0.2,0.2,0.2v0.1h-0.7v-0.1c0.2,0,0.2,0,0.2-0.2v-0.9h0c-0.1,0-0.2,0-0.2,0.1&#10;&#9;&#9;c0,0,0,0.1-0.1,0.2h-0.1c0-0.2,0-0.3,0-0.4h0.1c0,0,0,0,0.1,0h0.8c0.1,0,0.1,0,0.1,0h0.1c0,0.1,0,0.2,0,0.4l-0.1,0&#10;&#9;&#9;c0-0.1-0.1-0.2-0.1-0.2c0,0-0.1,0-0.2,0h0L193.6,29.1L193.6,29.1z" style="fill: rgb(0, 33, 71) !important;"/>
	<path fill="#002147" d="M194.6,29.1c0,0.2,0,0.2,0.2,0.2v0.1h-0.6v-0.1c0.1,0,0.2,0,0.2-0.2v-0.6c0-0.2,0-0.2-0.2-0.2v-0.1h0.6v0.1&#10;&#9;&#9;c-0.1,0-0.2,0-0.2,0.2V29.1z" style="fill: rgb(0, 33, 71) !important;"/>
	<path fill="#002147" d="M196.2,28.7c0,0.4-0.3,0.7-0.7,0.7c-0.4,0-0.7-0.3-0.7-0.7c0-0.3,0.2-0.7,0.7-0.7&#10;&#9;&#9;C196,28.1,196.2,28.3,196.2,28.7L196.2,28.7z M195.3,28.7c0,0.4,0.1,0.6,0.3,0.6c0.2,0,0.3-0.2,0.3-0.5c0-0.4-0.1-0.6-0.3-0.6&#10;&#9;&#9;C195.4,28.2,195.3,28.3,195.3,28.7L195.3,28.7z" style="fill: rgb(0, 33, 71) !important;"/>
	<path fill="#002147" d="M194.1,30.5L194.1,30.5c-0.1,0.1-0.2,0.1-0.2,0.3l0,0.7c0,0.2,0,0.2,0.2,0.2v0.1h-0.6v-0.1&#10;&#9;&#9;c0.1,0,0.2,0,0.2-0.2l0-0.7h0l-0.4,1h-0.1l-0.4-0.9h0l0,0.4c0,0.2,0,0.3,0,0.3c0,0.1,0.1,0.1,0.2,0.1v0.1h-0.5v-0.1&#10;&#9;&#9;c0.1,0,0.1,0,0.1-0.1c0-0.1,0-0.2,0-0.3l0-0.4c0-0.2,0-0.3-0.2-0.3v-0.1h0.5l0.3,0.8l0.3-0.8H194.1L194.1,30.5z" style="fill: rgb(0, 33, 71) !important;"/>
	<path fill="#002147" d="M194.5,30.8c0-0.2,0-0.2-0.1-0.2v-0.1h0.9c0,0,0,0.2,0,0.3l-0.1,0c0-0.1,0-0.2-0.1-0.2c0,0-0.1,0-0.2,0h0&#10;&#9;&#9;c-0.1,0-0.1,0-0.1,0.1V31h0.1c0.2,0,0.2,0,0.2-0.2h0.1v0.5h-0.1c0-0.2,0-0.2-0.2-0.2h-0.1v0.3c0,0.1,0,0.2,0,0.2c0,0,0.1,0,0.1,0&#10;&#9;&#9;c0.1,0,0.2,0,0.2-0.1c0,0,0.1-0.1,0.1-0.2l0.1,0c0,0.1-0.1,0.3-0.1,0.4h-1v-0.1c0.2,0,0.2,0,0.2-0.2L194.5,30.8L194.5,30.8z" style="fill: rgb(0, 33, 71) !important;"/>
	<path fill="#002147" d="M196,31.7L196,31.7c0.1,0,0.1,0,0.1-0.1l-0.1-0.2h-0.3l-0.1,0.2c0,0.1,0,0.1,0.1,0.1l0.1,0v0.1h-0.5v-0.1&#10;&#9;&#9;c0.1,0,0.1,0,0.2-0.2l0.4-1l0.1,0l0.1,0.4c0.1,0.2,0.2,0.5,0.2,0.7c0.1,0.2,0.1,0.2,0.2,0.2v0.1L196,31.7L196,31.7L196,31.7z&#10;&#9;&#9; M195.8,31.2h0.3l-0.1-0.4h0L195.8,31.2z" style="fill: rgb(0, 33, 71) !important;"/>
	<path fill="#FFFFFF" d="M189,47.6c0,0.3-0.2,0.5-0.5,0.5c-0.3,0-0.5-0.2-0.5-0.5c0-0.3,0.2-0.5,0.5-0.5&#10;&#9;&#9;C188.8,47.1,189,47.3,189,47.6z" style="fill: rgb(255, 255, 255) !important;"/>
	<path fill="#FFFFFF" d="M194.3,48.4c0,0.3-0.2,0.5-0.5,0.5c-0.3,0-0.5-0.2-0.5-0.5c0-0.3,0.2-0.5,0.5-0.5&#10;&#9;&#9;C194,47.9,194.3,48.1,194.3,48.4z" style="fill: rgb(255, 255, 255) !important;"/>
	<path fill="#FFFFFF" d="M191.3,11.2c0,0.3-0.2,0.5-0.5,0.5c-0.3,0-0.5-0.2-0.5-0.5c0-0.3,0.2-0.5,0.5-0.5&#10;&#9;&#9;C191.1,10.7,191.3,11,191.3,11.2z" style="fill: rgb(255, 255, 255) !important;"/>
	<path fill="#FFFFFF" d="M203.6,16.1c0,0.3-0.3,0.5-0.5,0.5c-0.3,0-0.5-0.3-0.5-0.5c0-0.3,0.3-0.5,0.5-0.5&#10;&#9;&#9;C203.3,15.5,203.6,15.8,203.6,16.1z" style="fill: rgb(255, 255, 255) !important;"/>
	<path fill="#FFFFFF" d="M177.7,38.1c0.2,0.3,0.3,0.6,0.3,0.9c0,0.4-0.1,0.7-0.8,1.1l-1.9,1.3l-0.3-0.5c0,0,1.9-1.4,1.9-1.4&#10;&#9;&#9;c0.3-0.2,0.5-0.4,0.5-0.7c0-0.2-0.1-0.3-0.2-0.5c-0.2-0.3-0.4-0.4-0.6-0.4c-0.2,0-0.4,0.1-0.8,0.4l-1.7,1.2l-0.3-0.5l1.7-1.1&#10;&#9;&#9;c0.5-0.3,0.8-0.5,1.2-0.5C177.2,37.5,177.5,37.8,177.7,38.1L177.7,38.1z" style="fill: rgb(255, 255, 255) !important;"/>
	<polygon fill="#FFFFFF" points="171.8,34.5 175.3,33.3 175.5,33.8 173.5,36.3 176.1,35.3 176.3,35.8 172.8,37.1 172.6,36.6 &#10;&#9;&#9;174.6,34.1 172,35 &#9;" style="fill: rgb(255, 255, 255) !important;"/>
	<polygon fill="#FFFFFF" points="171.3,31.7 175,31.1 175.1,31.7 171.4,32.3 &#9;" style="fill: rgb(255, 255, 255) !important;"/>
	<polygon fill="#FFFFFF" points="171.2,27.2 171.2,26.6 174.9,28.1 174.9,28.7 171.1,29.9 171.1,29.2 174.1,28.4 &#9;" style="fill: rgb(255, 255, 255) !important;"/>
	<path fill="#FFFFFF" d="M174.5,18.9c-0.5,0-0.8,0.3-1.1,0.9l-0.4,0.8l3.3,1.8l0.3-0.5l-1.4-0.7l0.1-0.1c0.2-0.4,0.3-0.5,0.9-0.4&#10;&#9;&#9;l1.1,0.1l0.3-0.6l-1.2-0.1c-0.2,0-0.4,0-0.6,0c-0.1,0-0.1,0-0.2,0.1c0-0.1,0-0.1,0-0.2c0-0.1,0-0.2,0-0.3c-0.1-0.2-0.2-0.4-0.5-0.5&#10;&#9;&#9;C174.9,18.9,174.7,18.9,174.5,18.9z M173.9,20c0.2-0.4,0.4-0.5,0.6-0.5c0.1,0,0.2,0,0.3,0.1c0.1,0.1,0.2,0.2,0.3,0.3&#10;&#9;&#9;c0,0.1,0,0.1,0,0.2c0,0.2-0.1,0.4-0.3,0.7l-0.1,0.1l-1.1-0.6L173.9,20L173.9,20z" style="fill: rgb(255, 255, 255) !important;"/>
	<polygon fill="#FFFFFF" points="178.6,13.6 179.1,13.2 181.4,16.2 180.9,16.6 &#9;" style="fill: rgb(255, 255, 255) !important;"/>
	<polygon fill="#FFFFFF" points="180.7,12.1 183.1,10.9 183.3,11.3 182.4,11.8 183.9,14.7 183.4,14.9 181.9,12.1 180.9,12.6 &#9;" style="fill: rgb(255, 255, 255) !important;"/>
	<polygon fill="#FFFFFF" points="186.7,9.7 187.4,9.5 186.9,12.1 187.3,13.5 186.7,13.6 186.3,12.2 184.5,10.4 185.1,10.2 &#10;&#9;&#9;186.4,11.5 &#9;" style="fill: rgb(255, 255, 255) !important;"/>
	<polygon fill="#FFFFFF" points="198.1,14.8 200,11.6 201.8,12.7 201.6,13.1 200.3,12.4 199.8,13.3 201,14 200.7,14.4 199.5,13.7 &#10;&#9;&#9;198.7,15.1 &#9;" style="fill: rgb(255, 255, 255) !important;"/>
	<polygon fill="#FFFFFF" points="207.8,23.2 209.1,21.5 209.3,22.2 208.3,23.3 209.8,23.7 210,24.3 208,23.8 206.5,25.5 206.3,24.9 &#10;&#9;&#9;207.4,23.6 205.7,23.2 205.5,22.6 &#9;" style="fill: rgb(255, 255, 255) !important;"/>
	<polygon fill="#FFFFFF" points="206.7,26.8 210.4,26.5 210.6,28.6 210.1,28.7 210,27.2 208.9,27.3 209,28.7 208.5,28.7 208.4,27.3 &#10;&#9;&#9;206.7,27.4 &#9;" style="fill: rgb(255, 255, 255) !important;"/>
	<path fill="#FFFFFF" d="M208.3,30.2c-0.4,0-0.8,0.1-1.1,0.3c-0.6,0.4-0.7,1-0.7,1.3c0,1.3,1.2,1.8,2.1,1.8c0.4,0,0.8-0.1,1.1-0.3&#10;&#9;&#9;c0.6-0.5,0.7-1.1,0.7-1.4C210.4,30.8,209.4,30.2,208.3,30.2L208.3,30.2z M208.6,33c-0.7,0-1.6-0.4-1.6-1.1c0-0.3,0.1-0.6,0.4-0.9&#10;&#9;&#9;c0.2-0.2,0.5-0.2,0.8-0.2c0.4,0,1,0.1,1.4,0.6c0.1,0.2,0.2,0.4,0.2,0.6c0,0.3-0.1,0.6-0.4,0.8C209.2,33,209,33,208.6,33L208.6,33z" style="fill: rgb(255, 255, 255) !important;"/>
	<path fill="#FFFFFF" d="M206.2,17.7c-0.4,0-0.8,0.1-1.2,0.4c-0.7,0.5-1,1.1-1,1.6c0,0.3,0.1,0.6,0.3,0.9c0.4,0.6,1,0.8,1.4,0.8&#10;&#9;&#9;c0.4,0,0.8-0.1,1.2-0.4c0.5-0.3,1-0.8,1-1.6c0-0.3-0.1-0.6-0.3-0.9C207.2,18,206.7,17.7,206.2,17.7L206.2,17.7z M205.6,20.8&#10;&#9;&#9;c-0.3,0-0.6-0.1-0.8-0.5c-0.1-0.2-0.2-0.3-0.2-0.5c0-0.4,0.3-0.9,0.8-1.2c0.3-0.2,0.6-0.3,0.9-0.3c0.4,0,0.7,0.2,0.9,0.5&#10;&#9;&#9;c0.1,0.2,0.2,0.4,0.2,0.6c0,0.4-0.3,0.8-0.7,1.1C206.2,20.7,205.9,20.8,205.6,20.8L205.6,20.8z" style="fill: rgb(255, 255, 255) !important;"/>
	<path fill="#FFFFFF" d="M196,10c-0.8,0-1.5,0.5-1.7,1.5c-0.1,0.2-0.1,0.4-0.1,0.6c0,0.4,0.1,0.7,0.2,0.9c0.3,0.6,1,0.8,1.5,0.8&#10;&#9;&#9;c0.3,0,0.5-0.1,0.8-0.2c0.6-0.3,1-1.1,1-1.9c0-0.3-0.1-0.6-0.2-0.9C197.1,10.3,196.5,10,196,10L196,10z M195.8,13.4&#10;&#9;&#9;c-0.3,0-0.7-0.1-0.9-0.5c-0.1-0.2-0.2-0.4-0.2-0.7c0-0.7,0.4-1.6,1.3-1.6c0.5,0,1,0.3,1,1.2C197,12.3,196.6,13.4,195.8,13.4z" style="fill: rgb(255, 255, 255) !important;"/>
	<polygon fill="#FFFFFF" points="175.2,23.6 175.7,23.7 175.2,25.8 171.6,24.8 172.2,22.7 172.7,22.9 172.2,24.4 173.2,24.6 &#10;&#9;&#9;173.6,23.3 174.1,23.4 173.7,24.8 174.8,25.1 &#9;" style="fill: rgb(255, 255, 255) !important;"/>
	<path fill="#FFFFFF" d="M176.2,15.8c0.5-0.6,1.1-0.5,1.1-0.5l0.1,0.5c0,0-0.4,0-0.7,0.4c-0.1,0.2-0.2,0.3-0.2,0.5&#10;&#9;&#9;c0,0.1,0,0.2,0.1,0.3c0.3,0.2,0.7,0,1-0.1c0.2-0.1,0.5-0.2,0.8-0.2c0.2,0,0.5,0.1,0.7,0.3c0.2,0.2,0.4,0.5,0.4,0.8&#10;&#9;&#9;c0,0.3-0.1,0.6-0.4,0.9c-0.5,0.5-1.1,0.6-1.1,0.6l-0.1-0.5c0.4-0.1,0.7-0.2,0.8-0.4c0.1-0.2,0.2-0.3,0.2-0.5c0-0.1-0.1-0.3-0.2-0.4&#10;&#9;&#9;c-0.1-0.1-0.2-0.1-0.3-0.1c-0.2,0-0.5,0.1-0.8,0.2c-0.5,0.2-0.9,0.3-1.4,0c-0.2-0.2-0.3-0.4-0.3-0.7&#10;&#9;&#9;C175.8,16.4,175.9,16,176.2,15.8L176.2,15.8z" style="fill: rgb(255, 255, 255) !important;"/>
	<path fill="#FFFFFF" d="M205.7,35l1.4,0.6l-0.1,0.2c-0.2,0.4-0.3,0.5-0.9,0.5l-1.1,0l-0.3,0.6l1.2,0c0.2,0,0.4,0,0.6-0.1&#10;&#9;&#9;c0,0,0.1-0.1,0.2-0.1c0,0,0,0.1,0,0.1c0,0.1,0,0.3,0.1,0.4c0.2,0.4,0.6,0.6,1,0.6c0.6,0,0.8-0.4,1.1-1c0,0,0.3-0.8,0.3-0.8&#10;&#9;&#9;l-3.4-1.5L205.7,35z M207.9,37.2c-0.2,0-0.5-0.1-0.6-0.4c0-0.1,0-0.1,0-0.2c0-0.2,0.1-0.4,0.2-0.6l0.1-0.1l1.1,0.5l-0.1,0.3&#10;&#9;&#9;C208.3,37.1,208.2,37.2,207.9,37.2L207.9,37.2z" style="fill: rgb(255, 255, 255) !important;"/>
	<path fill="#FFFFFF" d="M203.7,38.6c-0.4,0.5-0.7,0.9-0.7,1.5c0,0.5,0.2,1,0.8,1.5c0.4,0.3,0.8,0.4,1.2,0.4c0.5,0,0.9-0.2,1.6-1&#10;&#9;&#9;l0.6-0.7l-2.9-2.3L203.7,38.6z M205.1,41.4c-0.3,0-0.6-0.1-0.9-0.3c-0.3-0.2-0.6-0.6-0.6-1.1c0-0.3,0.2-0.6,0.4-1l0.2-0.3l2.1,1.7&#10;&#9;&#9;l-0.2,0.2C205.9,41.1,205.6,41.4,205.1,41.4L205.1,41.4z" style="fill: rgb(255, 255, 255) !important;"/>
	<path fill="#FFFFFF" d="M212.2,29.1c0-11.8-9.6-21.4-21.4-21.4c-11.8,0-21.4,9.6-21.4,21.4c0,7.1,3.5,13.7,9.4,17.7&#10;&#9;&#9;c0.6,2.1,2.5,3.7,4.9,3.7c0.6,0,1.2-0.1,1.8-0.3c0.8,0.3,1.6,0.5,2.4,0.6c-0.2,0.6-0.6,1.3-0.9,1.8c0,0,0,0,0,0c0,0,0,0,0,0&#10;&#9;&#9;l0.4,0.4c0.1-0.1,0.2-0.1,0.4-0.1c0.4,0,0.8,0.4,0.8,0.8c0,0.4-0.4,0.8-0.8,0.8c-0.4,0-0.7-0.2-0.9-0.5c0,0-0.1,0.4-0.1,0.8&#10;&#9;&#9;c0,1.5,1.7,3.3,4,4c2.3-0.7,4-2.5,4-4c0-0.5-0.1-0.8-0.1-0.8c-0.2,0.2-0.5,0.5-0.9,0.5c-0.4,0-0.8-0.4-0.8-0.8&#10;&#9;&#9;c0-0.4,0.4-0.8,0.8-0.8c0.2,0,0.3,0,0.4,0.1l0.4-0.4c0,0,0,0,0,0c-0.2-0.6-0.4-1.1-0.5-1.6c3.9-0.5,7.1-2.1,9.7-4.9l0,0&#10;&#9;&#9;C209.2,42,212.2,35.9,212.2,29.1z M183.6,49.9c-2.4,0-4.4-2-4.4-4.4c0-0.8,0.2-1.5,0.5-2.1c0.2,0.2,0.5,0.4,0.7,0.6&#10;&#9;&#9;c-0.2,0.5-0.3,1-0.3,1.5c0,1.3,0.7,2.4,1.9,3.2c0.7,0.4,1.6,0.8,2.4,1.2C184.2,49.9,183.9,49.9,183.6,49.9L183.6,49.9z M190.8,43.5&#10;&#9;&#9;c-0.9,0-1.8-0.1-2.7-0.3c-0.9-1.7-2.6-2.8-4.5-2.8c-0.5,0-0.9,0.1-1.3,0.2c-3.6-2.7-5.8-7-5.8-11.5c0-7.9,6.4-14.4,14.4-14.4&#10;&#9;&#9;c7.9,0,14.4,6.4,14.4,14.4C205.2,37,198.7,43.5,190.8,43.5L190.8,43.5z M194,43.7c-0.4,0.6-0.7,1.5-0.8,2.3&#10;&#9;&#9;c-1.4-0.3-2.6-0.8-3.7-1.3c0.2-0.4,0.8-0.7,1.2-0.7C191.9,44.1,193,43.9,194,43.7L194,43.7z M189.5,44c-0.2,0.1-0.3,0.3-0.4,0.5&#10;&#9;&#9;c-0.5-0.3-1.2-0.6-1.7-0.9C188,43.8,188.8,43.9,189.5,44L189.5,44z M183.6,41.1c1.5,0,2.9,0.8,3.7,2c-0.7-0.2-1.4-0.4-2.1-0.7l0,0&#10;&#9;&#9;l0,0c-0.5-0.2-1-0.3-1.5-0.3c-1.2,0-2.2,0.6-2.9,1.5c-0.3-0.1-0.5-0.3-0.8-0.5C180.8,41.8,182.1,41.1,183.6,41.1L183.6,41.1z&#10;&#9;&#9; M193.8,52.3c-0.8,0-1.4,0.6-1.4,1.4c0,0.8,0.7,1.4,1.4,1.4c0.1,0,0.2,0,0.3,0c-0.2,1.2-1.5,2.5-3.3,3.1c-1.8-0.6-3.2-1.9-3.3-3.1&#10;&#9;&#9;c0.1,0,0.2,0,0.3,0c0.9,0,1.4-0.6,1.4-1.4c0-0.8-0.6-1.4-1.4-1.4c0.2-0.4,0.5-0.9,0.6-1.4c1,0.2,2,0.3,2.8,0.3c0.7,0,1.5,0,2.2-0.1&#10;&#9;&#9;C193.6,51.5,193.7,51.9,193.8,52.3C193.8,52.3,193.8,52.3,193.8,52.3L193.8,52.3z M191.3,50.6c-2.9,0-6.5-1-8.9-2.4&#10;&#9;&#9;c-0.7-0.4-1.6-1.3-1.6-2.7c0-0.4,0.1-0.7,0.2-1.1c0.9,0.8,1.9,1.5,2.5,1.8c0.1,0.1,0.2,0.1,0.4,0.1c0.4,0,0.7-0.3,0.7-0.7&#10;&#9;&#9;c0-0.3-0.2-0.5-0.4-0.6c-0.5-0.2-1.6-0.7-2.7-1.3c0.5-0.7,1.4-1.2,2.3-1.2c0.4,0,0.8,0.1,1.2,0.3l0.8,0.5c2.5,1.5,8.9,5.5,16.7,3.3&#10;&#9;&#9;C199.4,49.3,195.8,50.6,191.3,50.6L191.3,50.6z M203.4,45.7c-3.5,1.2-6.7,1.1-9.5,0.5c0.1-1.2,0.6-2.6,1.4-2.8&#10;&#9;&#9;c6.1-1.9,10.6-7.6,10.6-14.3c0-8.3-6.7-15-15-15c-8.3,0-15,6.7-15,15c0,4.6,2.1,9,5.8,11.8c-0.9,0.4-1.6,1-2.1,1.7&#10;&#9;&#9;c-0.3-0.2-0.5-0.4-0.8-0.6l-0.1,0.1c0.2,0.2,0.4,0.5,0.7,0.7c-0.4,0.7-0.7,1.6-0.7,2.5c0,0.1,0,0.3,0,0.4&#10;&#9;&#9;c-5.4-3.9-8.6-10.1-8.6-16.8c0-11.5,9.3-20.8,20.8-20.8c11.5,0,20.8,9.3,20.8,20.8C211.6,35.7,208.6,41.7,203.4,45.7L203.4,45.7z" style="fill: rgb(255, 255, 255) !important;"/>
	<polygon fill="#002147" stroke="#FFFFFF" stroke-miterlimit="10" points="0.5,105.5 105.5,105.5 105.5,0.5 0.5,0.5 &#9;" style="fill: rgb(0, 33, 71) !important; stroke: rgb(255, 255, 255) !important;"/>
	<polygon fill="#FFFFFF" points="9.6,94.3 12,94.3 12,80.7 9.6,80.7 &#9;" style="fill: rgb(255, 255, 255) !important;"/>
	<path fill="#FFFFFF" d="M20,94.3l-2-5.2c-0.6-1.7-1.3-3.6-1.5-4.5c0.1,1.1,0.1,2.7,0.1,3.9l0.1,5.8h-2.2V80.7H17l2.2,5.4&#10;&#9;&#9;c0.6,1.4,1,2.9,1.2,3.9c-0.1-1.1-0.2-2.8-0.2-3.7l0-5.6h2.2v13.6H20L20,94.3z" style="fill: rgb(255, 255, 255) !important;"/>
	<path fill="#FFFFFF" d="M30.3,94.3l-2-5.2c-0.6-1.7-1.3-3.6-1.5-4.5c0.1,1.1,0.1,2.7,0.1,3.9l0.1,5.8h-2.2V80.7h2.5l2.2,5.4&#10;&#9;&#9;c0.6,1.4,1,2.9,1.2,3.9c-0.1-1.1-0.2-2.8-0.2-3.7l0-5.6h2.2v13.6H30.3L30.3,94.3z" style="fill: rgb(255, 255, 255) !important;"/>
	<path fill="#FFFFFF" d="M42,93.9c-0.7,0.4-1.3,0.6-2.3,0.6c-1.7,0-2.8-0.6-3.7-1.9c-0.9-1.3-1.3-3.1-1.3-5c0-2.9,0.9-5.3,2.6-6.4&#10;&#9;&#9;c0.7-0.4,1.5-0.7,2.4-0.7c3,0,4.9,2.6,4.9,6.9C44.5,90.5,43.7,92.8,42,93.9L42,93.9z M41.6,84.4c-0.2-0.7-0.8-1.7-2-1.7&#10;&#9;&#9;c-0.8,0-1.4,0.5-1.8,1.2c-0.4,0.9-0.6,2.1-0.6,3.7c0,2.3,0.3,3.8,1,4.4c0.4,0.3,0.8,0.5,1.4,0.5c1.6,0,2.3-1.4,2.3-4.9&#10;&#9;&#9;C41.9,86.2,41.8,85.2,41.6,84.4L41.6,84.4z" style="fill: rgb(255, 255, 255) !important;"/>
	<path fill="#FFFFFF" d="M50.6,94.4h-2.1l-3.9-13.7h2.5l1.9,7.1c0.2,0.6,0.3,1.4,0.5,2.4c0.1-0.8,0.4-2,0.7-2.7l1.9-6.7h2.4&#10;&#9;&#9;L50.6,94.4z" style="fill: rgb(255, 255, 255) !important;"/>
	<path fill="#FFFFFF" d="M61.1,94.3l-0.8-3.2H57l-0.8,3.2h-2.4l3.7-13.6H60l3.6,13.6H61.1z M59.1,86.1l-0.5-2.4&#10;&#9;&#9;c-0.1,0.3-0.3,1.7-0.5,2.6c-0.2,1-0.4,1.6-0.6,2.5h2.2C59.7,88.5,59.3,87,59.1,86.1L59.1,86.1z" style="fill: rgb(255, 255, 255) !important;"/>
	<polygon fill="#FFFFFF" points="70.9,83 68.1,83 68.1,94.3 65.8,94.3 65.8,83 63,83 63,80.7 71.2,80.7 &#9;" style="fill: rgb(255, 255, 255) !important;"/>
	<polygon fill="#FFFFFF" points="72.2,94.3 74.6,94.3 74.6,80.7 72.2,80.7 &#9;" style="fill: rgb(255, 255, 255) !important;"/>
	<path fill="#FFFFFF" d="M83.9,93.9c-0.7,0.4-1.3,0.6-2.3,0.6c-1.7,0-2.8-0.6-3.7-1.9c-0.9-1.3-1.3-3.1-1.3-5c0-2.9,0.9-5.3,2.6-6.4&#10;&#9;&#9;c0.7-0.4,1.5-0.7,2.4-0.7c3,0,4.9,2.6,4.9,6.9C86.4,90.5,85.5,92.8,83.9,93.9L83.9,93.9z M83.5,84.4c-0.2-0.7-0.8-1.7-2-1.7&#10;&#9;&#9;c-0.8,0-1.4,0.5-1.8,1.2c-0.4,0.9-0.6,2.1-0.6,3.7c0,2.3,0.3,3.8,1,4.4c0.4,0.3,0.8,0.5,1.4,0.5c1.6,0,2.3-1.4,2.3-4.9&#10;&#9;&#9;C83.8,86.2,83.7,85.2,83.5,84.4L83.5,84.4z" style="fill: rgb(255, 255, 255) !important;"/>
	<path fill="#FFFFFF" d="M93.9,94.3l-2-5.2c-0.6-1.7-1.3-3.6-1.5-4.5c0.1,1.1,0.1,2.7,0.1,3.9l0.1,5.8h-2.2V80.7h2.5l2.2,5.4&#10;&#9;&#9;c0.6,1.4,1,2.9,1.2,3.9c-0.1-1.1-0.2-2.8-0.2-3.7l0-5.6h2.2v13.6H93.9z" style="fill: rgb(255, 255, 255) !important;"/>
	<path fill="#FFFFFF" d="M12.2,75.7c-1.8,0-2.7-1.4-2.7-3.3c0-2.1,1-3.3,2.6-3.3c1.9,0,2.6,1.6,2.6,3.4&#10;&#9;&#9;C14.8,74.4,13.9,75.7,12.2,75.7z M12.2,69.7c-1.1,0-1.6,0.8-1.6,2.5c0,1.6,0.4,2.8,1.6,2.8c1,0,1.6-0.7,1.6-2.5&#10;&#9;&#9;C13.8,70.7,13.4,69.7,12.2,69.7z" style="fill: rgb(255, 255, 255) !important;"/>
	<polygon fill="#FFFFFF" points="19.5,75.6 18.1,72.8 16.7,75.6 15.6,75.6 17.6,72.1 15.8,69.1 16.9,69.1 18.1,71.3 19.2,69.1 &#10;&#9;&#9;20.3,69.1 18.6,72 20.6,75.6 &#9;" style="fill: rgb(255, 255, 255) !important;"/>
	<polygon fill="#FFFFFF" points="25.1,69.9 22.8,69.9 22.8,71.8 24.7,71.8 24.7,72.5 22.8,72.5 22.8,75.6 21.8,75.6 21.8,69.1 &#10;&#9;&#9;25.2,69.1 &#9;" style="fill: rgb(255, 255, 255) !important;"/>
	<path fill="#FFFFFF" d="M28.6,75.7c-1.8,0-2.7-1.4-2.7-3.3c0-2.1,1-3.3,2.6-3.3c1.9,0,2.6,1.6,2.6,3.4&#10;&#9;&#9;C31.2,74.4,30.3,75.7,28.6,75.7z M28.6,69.7c-1.1,0-1.6,0.8-1.6,2.5c0,1.6,0.4,2.8,1.6,2.8c1,0,1.6-0.7,1.6-2.5&#10;&#9;&#9;C30.2,70.7,29.8,69.7,28.6,69.7z" style="fill: rgb(255, 255, 255) !important;"/>
	<path fill="#FFFFFF" d="M36,75.6c-0.2-0.4-0.3-0.5-0.5-1c-0.5-0.8-0.7-1.1-1.1-1.6c-0.2-0.2-0.3-0.3-0.6-0.3v2.8h-0.9v-6.4h1.8&#10;&#9;&#9;c0.8,0,1.2,0.2,1.5,0.5c0.3,0.3,0.6,0.7,0.6,1.3c0,1-0.6,1.8-1.6,1.8h-0.1c0.3,0.2,0.4,0.3,0.6,0.6c0.1,0.2,0.3,0.5,0.5,0.8&#10;&#9;&#9;l0.9,1.5L36,75.6L36,75.6z M35.3,70c-0.2-0.1-0.4-0.1-0.8-0.1h-0.7v2.2h0.6c0.6,0,0.9-0.1,1.1-0.3c0.2-0.2,0.3-0.5,0.3-0.9&#10;&#9;&#9;C35.9,70.5,35.6,70.1,35.3,70L35.3,70z" style="fill: rgb(255, 255, 255) !important;"/>
	<path fill="#FFFFFF" d="M42.2,74.7c-0.4,0.6-1,0.9-2.2,0.9h-1.6v-6.4H40c1.1,0,1.8,0.3,2.4,1.1c0.4,0.5,0.6,1.3,0.6,2.2&#10;&#9;&#9;C42.9,73.4,42.7,74.2,42.2,74.7z M41.5,70.4c-0.4-0.4-0.7-0.6-1.4-0.6h-0.7v5h0.7c0.7,0,1.2-0.2,1.5-0.7c0.2-0.4,0.3-1,0.3-1.6&#10;&#9;&#9;C42,71.6,41.9,70.9,41.5,70.4L41.5,70.4z" style="fill: rgb(255, 255, 255) !important;"/>
	<path fill="#FFFFFF" d="M51,74.9c-0.3,0.4-0.9,0.8-1.8,0.8c-1,0-1.6-0.3-1.9-0.9C47,74.5,47,74.3,47,73.6v-4.5h0.9v4.2&#10;&#9;&#9;c0,0.5,0,1,0.2,1.3c0.2,0.2,0.5,0.4,1,0.4c0.5,0,0.8-0.1,1-0.4c0.2-0.2,0.2-0.6,0.2-1.1v-4.3h0.9v4.4C51.3,74.4,51.2,74.6,51,74.9&#10;&#9;&#9;L51,74.9z" style="fill: rgb(255, 255, 255) !important;"/>
	<path fill="#FFFFFF" d="M56.5,75.6l-1.7-3.4c-0.3-0.7-0.7-1.4-0.8-1.8l-0.1,0c0,0.6,0.1,1.2,0.1,1.8l0,3.4h-0.9v-6.4h1l1.8,3.5&#10;&#9;&#9;c0.3,0.5,0.6,1.4,0.6,1.5l0.1,0c0-0.2-0.1-1.2-0.1-1.9l0-3.2h0.9v6.4L56.5,75.6L56.5,75.6z" style="fill: rgb(255, 255, 255) !important;"/>
	<polygon fill="#FFFFFF" points="59.2,75.6 60.1,75.6 60.1,69.1 59.2,69.1 &#9;" style="fill: rgb(255, 255, 255) !important;"/>
	<path fill="#FFFFFF" d="M64.4,75.6h-0.9l-2.1-6.5h1l1.2,3.9c0.1,0.2,0.2,0.6,0.2,0.9c0,0.2,0.1,0.4,0.1,0.5H64&#10;&#9;&#9;c0.1-0.4,0.2-0.9,0.4-1.3l1.3-3.9h0.9L64.4,75.6L64.4,75.6z" style="fill: rgb(255, 255, 255) !important;"/>
	<polygon fill="#FFFFFF" points="67.8,75.6 67.8,69.1 71.3,69.1 71.1,69.9 68.7,69.9 68.7,71.8 70.7,71.8 70.7,72.6 68.7,72.6 &#10;&#9;&#9;68.7,74.8 71.4,74.8 71.4,75.6 &#9;" style="fill: rgb(255, 255, 255) !important;"/>
	<path fill="#FFFFFF" d="M75.9,75.6c-0.2-0.4-0.3-0.5-0.5-1c-0.5-0.8-0.7-1.1-1.1-1.6c-0.2-0.2-0.3-0.3-0.6-0.3v2.8h-0.9v-6.4h1.8&#10;&#9;&#9;c0.8,0,1.2,0.2,1.5,0.5c0.3,0.3,0.6,0.7,0.6,1.3c0,1-0.6,1.8-1.6,1.8H75c0.3,0.2,0.4,0.3,0.6,0.6c0.1,0.2,0.3,0.5,0.5,0.8l0.9,1.5&#10;&#9;&#9;L75.9,75.6L75.9,75.6z M75.2,70c-0.2-0.1-0.4-0.1-0.8-0.1h-0.7v2.2h0.6c0.6,0,0.9-0.1,1.1-0.3c0.2-0.2,0.3-0.5,0.3-0.9&#10;&#9;&#9;C75.8,70.5,75.5,70.1,75.2,70z" style="fill: rgb(255, 255, 255) !important;"/>
	<path fill="#FFFFFF" d="M80.1,75.7c-0.7,0-1.4-0.2-2.1-0.6l0.4-0.7c0.6,0.3,1.1,0.5,1.7,0.5c0.8,0,1.4-0.4,1.4-1.1&#10;&#9;&#9;c0-0.5-0.3-0.9-1.1-1.1l-0.7-0.2c-1-0.3-1.5-0.7-1.5-1.7c0-1.1,0.9-1.9,2.1-1.9c0.7,0,1.4,0.2,2,0.6L82,70.3&#10;&#9;&#9;c-0.6-0.4-1-0.5-1.5-0.5c-0.7,0-1.2,0.4-1.2,1c0,0.5,0.3,0.7,1,0.9l0.8,0.2c0.9,0.3,1.6,0.8,1.6,1.8C82.5,74.6,81.8,75.7,80.1,75.7&#10;&#9;&#9;L80.1,75.7z" style="fill: rgb(255, 255, 255) !important;"/>
	<polygon fill="#FFFFFF" points="83.7,75.6 84.6,75.6 84.6,69.1 83.7,69.1 &#9;" style="fill: rgb(255, 255, 255) !important;"/>
	<polygon fill="#FFFFFF" points="90.2,69.9 88.5,69.9 88.5,75.6 87.7,75.6 87.7,69.9 86,69.9 86,69.1 90.3,69.1 &#9;" style="fill: rgb(255, 255, 255) !important;"/>
	<path fill="#FFFFFF" d="M94.3,73v2.6h-0.9V73l-2-3.9h1.1l1.1,2.2c0.1,0.3,0.3,0.5,0.4,0.8c0.1-0.3,0.2-0.5,0.4-0.8l1.1-2.2h1&#10;&#9;&#9;L94.3,73L94.3,73z" style="fill: rgb(255, 255, 255) !important;"/>
	<polygon fill="#FFFFFF" points="72.7,17.8 70.8,17.8 70.4,9.9 73.1,9.9 &#9;" style="fill: rgb(255, 255, 255) !important;"/>
	<polygon fill="#EA7500" points="70,19.4 68.2,19.9 65.6,12.5 68.1,11.7 &#9;" style="fill: rgb(234, 117, 0) !important;"/>
	<polygon fill="#D74A73" points="65.9,16.2 64.2,16.9 60.6,9.9 63,8.9 &#9;" style="fill: rgb(215, 74, 115) !important;"/>
	<polygon fill="#347AD8" points="65,22.3 63.5,23.4 58.6,17.3 60.7,15.7 &#9;" style="fill: rgb(52, 122, 216) !important;"/>
	<polygon fill="#008A30" points="61.7,14.2 60.1,15.1 55.8,8.5 58.1,7.2 &#9;" style="fill: rgb(0, 138, 48) !important;"/>
	<polygon fill="#6CB200" points="60.5,24.5 59.3,25.9 53.2,21 55,19 &#9;" style="fill: rgb(108, 178, 0) !important;"/>
	<polygon fill="#C18F60" points="58.2,17.9 56.8,19.2 51.2,13.7 53.2,11.9 &#9;" style="fill: rgb(193, 143, 96) !important;"/>
	<polygon fill="#FFCF00" points="50.9,23 50.1,24.7 42.8,21.8 43.9,19.4 &#9;" style="fill: rgb(255, 207, 0) !important;"/>
	<polygon fill="#FD3600" points="47.9,16.8 46.8,18.4 40.1,14.4 41.5,12.2 &#9;" style="fill: rgb(253, 54, 0) !important;"/>
	<polygon fill="#FD3600" points="58,28.1 57.4,29.8 49.9,27.8 50.7,25.3 &#9;" style="fill: rgb(253, 54, 0) !important;"/>
	<polygon fill="#FFFFFF" points="52.8,36.3 53.2,38.2 45.6,40.1 45.1,37.5 &#9;" style="fill: rgb(255, 255, 255) !important;"/>
	<polygon fill="#960021" points="52,29.2 51.8,31 43.9,30.6 44.2,28 &#9;" style="fill: rgb(150, 0, 33) !important;"/>
	<polygon fill="#00A0AE" points="47.6,31.9 47.6,33.8 39.8,34.2 39.8,31.5 &#9;" style="fill: rgb(0, 160, 174) !important;"/>
	<polygon fill="#A0007C" points="59.8,33.2 59.8,35.1 51.9,35.5 51.9,32.8 &#9;" style="fill: rgb(160, 0, 124) !important;"/>
	<polygon fill="#FFFFFF" points="55.9,38.4 56.4,40.2 49.1,43 48.3,40.5 &#9;" style="fill: rgb(255, 255, 255) !important;"/>
	<polygon fill="#FFFFFF" points="57.1,41.6 58,43.2 51.4,47.5 50.1,45.2 &#9;" style="fill: rgb(255, 255, 255) !important;"/>
	<polygon fill="#FFFFFF" points="58.9,44.5 60.2,45.9 54.6,51.4 52.9,49.5 &#9;" style="fill: rgb(255, 255, 255) !important;"/>
	<polygon fill="#FFFFFF" points="61.4,47 62.9,48 58.6,54.6 56.4,53.1 &#9;" style="fill: rgb(255, 255, 255) !important;"/>
	<polygon fill="#FFFFFF" points="64.2,48.8 66,49.6 63.1,56.9 60.7,55.8 &#9;" style="fill: rgb(255, 255, 255) !important;"/>
	<polygon fill="#FFFFFF" points="67.5,50.1 69.3,50.5 68,58.2 65.4,57.7 &#9;" style="fill: rgb(255, 255, 255) !important;"/>
	<polygon fill="#FFFFFF" points="70.9,50.6 72.7,50.6 73.1,58.5 70.5,58.5 &#9;" style="fill: rgb(255, 255, 255) !important;"/>
	<polygon fill="#FFFFFF" points="74.3,50.5 76.1,50.1 78.1,57.7 75.5,58.2 &#9;" style="fill: rgb(255, 255, 255) !important;"/>
	<polygon fill="#FFFFFF" points="77.6,49.6 79.3,48.8 82.9,55.8 80.5,56.9 &#9;" style="fill: rgb(255, 255, 255) !important;"/>
	<polygon fill="#FFFFFF" points="80.7,48 82.2,46.9 87.1,53 85,54.6 &#9;" style="fill: rgb(255, 255, 255) !important;"/>
	<polygon fill="#FFFFFF" points="83.4,45.9 84.6,44.5 90.7,49.4 88.9,51.4 &#9;" style="fill: rgb(255, 255, 255) !important;"/>
	<polygon fill="#FFFFFF" points="85.6,43.2 86.5,41.6 93.5,45.2 92.1,47.5 &#9;" style="fill: rgb(255, 255, 255) !important;"/>
	<polygon fill="#FFFFFF" points="87.1,40.1 87.7,38.4 95.3,40.4 94.5,42.9 &#9;" style="fill: rgb(255, 255, 255) !important;"/>
	<polygon fill="#FFFFFF" points="88,36.8 88.2,35 96.1,35.4 95.8,38 &#9;" style="fill: rgb(255, 255, 255) !important;"/>
	<polygon fill="#FFFFFF" points="88.2,33.4 88,31.5 95.8,30.3 96.1,33 &#9;" style="fill: rgb(255, 255, 255) !important;"/>
	<polygon fill="#FFFFFF" points="87.7,30 87.1,28.2 94.4,25.4 95.3,27.9 &#9;" style="fill: rgb(255, 255, 255) !important;"/>
	<polygon fill="#FFFFFF" points="86.5,26.8 85.5,25.2 92.1,20.9 93.5,23.2 &#9;" style="fill: rgb(255, 255, 255) !important;"/>
	<polygon fill="#FFFFFF" points="84.6,23.9 83.4,22.5 88.9,17 90.7,18.9 &#9;" style="fill: rgb(255, 255, 255) !important;"/>
	<polygon fill="#FFFFFF" points="82.2,21.4 80.7,20.3 85,13.8 87.1,15.3 &#9;" style="fill: rgb(255, 255, 255) !important;"/>
	<polygon fill="#FFFFFF" points="79.3,19.5 77.6,18.8 80.4,11.5 82.8,12.5 &#9;" style="fill: rgb(255, 255, 255) !important;"/>
	<polygon fill="#FFFFFF" points="76.1,18.3 74.3,17.9 75.5,10.2 78.1,10.7 &#9;" style="fill: rgb(255, 255, 255) !important;"/>
</g>
</svg>