<svg width="232" height="36" viewBox="0 0 232 36" fill="none" xmlns="http://www.w3.org/2000/svg" data-fc-idx="0">
<g clip-path="url(#clip0_1036_162)" style="fill: rgb(0, 124, 158) !important;">
<path d="M226.57 8.46C226.57 7.34 227.47 6.41 228.61 6.41C229.75 6.41 230.64 7.33 230.64 8.44C230.64 9.56 229.74 10.49 228.6 10.49C227.46 10.49 226.57 9.57 226.57 8.46ZM230.46 8.45C230.46 7.42 229.67 6.59 228.61 6.59C227.55 6.59 226.75 7.43 226.75 8.45C226.75 9.48 227.54 10.31 228.6 10.31C229.66 10.31 230.46 9.47 230.46 8.45ZM227.81 7.35H228.74C229 7.35 229.22 7.43 229.36 7.57C229.46 7.66 229.53 7.81 229.53 7.97C229.53 8.32 229.3 8.52 228.99 8.6L229.64 9.44H229.26L228.66 8.65H228.13V9.44H227.82V7.35H227.81ZM228.72 8.37C229.01 8.37 229.22 8.24 229.22 8C229.22 7.77 229.04 7.63 228.74 7.63H228.13V8.37H228.73H228.72Z" fill="#797C81" style="fill: rgb(121, 124, 129) !important;"/>
<path d="M46.21 27.42H47.14V29.62H49.66V27.42H50.59V32.71H49.66V30.48H47.14V32.71H46.21V27.42Z" fill="#797C81" style="fill: rgb(121, 124, 129) !important;"/>
<path d="M52.25 30.08C52.25 28.58 53.4 27.33 55.02 27.33C56.64 27.33 57.78 28.56 57.78 30.05V30.07C57.78 31.56 56.63 32.8 55.01 32.8C53.39 32.8 52.25 31.57 52.25 30.08ZM56.8 30.08C56.8 29.04 56.05 28.19 55 28.19C53.95 28.19 53.22 29.03 53.22 30.06V30.08C53.22 31.11 53.97 31.96 55.02 31.96C56.07 31.96 56.8 31.12 56.8 30.09V30.08Z" fill="#797C81" style="fill: rgb(121, 124, 129) !important;"/>
<path d="M59.05 31.94L59.61 31.28C60.11 31.72 60.62 31.97 61.28 31.97C61.85 31.97 62.22 31.7 62.22 31.3V31.28C62.22 30.9 62.01 30.7 61.03 30.47C59.91 30.2 59.27 29.87 59.27 28.89V28.87C59.27 27.96 60.02 27.34 61.08 27.34C61.85 27.34 62.46 27.57 63 28.01L62.5 28.71C62.03 28.36 61.55 28.17 61.07 28.17C60.53 28.17 60.21 28.45 60.21 28.79V28.81C60.21 29.22 60.45 29.4 61.46 29.64C62.58 29.91 63.16 30.31 63.16 31.19C63.16 32.2 62.38 32.78 61.27 32.78C60.46 32.78 59.7 32.5 59.06 31.93L59.05 31.94Z" fill="#797C81" style="fill: rgb(121, 124, 129) !important;"/>
<path d="M64.77 27.42H66.86C68.09 27.42 68.87 28.12 68.87 29.19C68.87 30.39 67.92 31.01 66.75 31.01H65.7V32.71H64.77V27.42ZM66.78 30.17C67.48 30.17 67.92 29.78 67.92 29.23V29.21C67.92 28.59 67.47 28.27 66.78 28.27H65.7V30.17H66.78Z" fill="#797C81" style="fill: rgb(121, 124, 129) !important;"/>
<path d="M70.41 27.42H71.34V32.71H70.41V27.42Z" fill="#797C81" style="fill: rgb(121, 124, 129) !important;"/>
<path d="M74.58 28.28H72.9V27.42H77.19V28.28H75.51V32.71H74.57V28.28H74.58Z" fill="#797C81" style="fill: rgb(121, 124, 129) !important;"/>
<path d="M79.9 27.38H80.76L83.09 32.7H82.11L81.57 31.42H79.07L78.53 32.7H77.58L79.91 27.38H79.9ZM81.23 30.6L80.32 28.49L79.41 30.6H81.23Z" fill="#797C81" style="fill: rgb(121, 124, 129) !important;"/>
<path d="M84.53 27.42H85.46V31.86H88.24V32.71H84.53V27.42Z" fill="#797C81" style="fill: rgb(121, 124, 129) !important;"/>
<path d="M92.65 30.06V30.04C92.65 29.45 93.14 28.98 93.71 28.98C94.28 28.98 94.78 29.45 94.78 30.04V30.06C94.78 30.65 94.3 31.12 93.71 31.12C93.12 31.12 92.65 30.65 92.65 30.06Z" fill="#797C81" style="fill: rgb(121, 124, 129) !important;"/>
<path d="M99.58 27.42H101.94C102.6 27.42 103.13 27.62 103.47 27.95C103.75 28.24 103.91 28.63 103.91 29.09C103.91 29.97 103.39 30.49 102.65 30.71L104.08 32.71H102.99L101.69 30.87H100.53V32.71H99.6V27.42H99.58ZM101.87 30.04C102.53 30.04 102.96 29.69 102.96 29.16V29.14C102.96 28.57 102.55 28.26 101.86 28.26H100.51V30.03H101.87V30.04Z" fill="#797C81" style="fill: rgb(121, 124, 129) !important;"/>
<path d="M105.58 27.42H109.5V28.25H106.51V29.63H109.16V30.46H106.51V31.88H109.54V32.71H105.58V27.42Z" fill="#797C81" style="fill: rgb(121, 124, 129) !important;"/>
<path d="M110.82 31.94L111.38 31.28C111.89 31.72 112.39 31.97 113.05 31.97C113.62 31.97 113.99 31.7 113.99 31.3V31.28C113.99 30.9 113.78 30.7 112.8 30.47C111.67 30.2 111.04 29.87 111.04 28.89V28.87C111.04 27.96 111.8 27.34 112.85 27.34C113.62 27.34 114.23 27.57 114.77 28.01L114.27 28.71C113.8 28.36 113.32 28.17 112.83 28.17C112.29 28.17 111.97 28.45 111.97 28.79V28.81C111.97 29.22 112.21 29.4 113.22 29.64C114.34 29.91 114.92 30.31 114.92 31.19C114.92 32.2 114.14 32.78 113.03 32.78C112.22 32.78 111.46 32.5 110.82 31.93V31.94Z" fill="#797C81" style="fill: rgb(121, 124, 129) !important;"/>
<path d="M116.54 27.42H120.46V28.25H117.47V29.63H120.12V30.46H117.47V31.88H120.5V32.71H116.54V27.42Z" fill="#797C81" style="fill: rgb(121, 124, 129) !important;"/>
<path d="M124.01 27.38H124.87L127.19 32.7H126.21L125.67 31.42H123.17L122.63 32.7H121.68L124 27.38H124.01ZM125.34 30.6L124.43 28.49L123.52 30.6H125.34Z" fill="#797C81" style="fill: rgb(121, 124, 129) !important;"/>
<path d="M128.65 27.42H131.01C131.67 27.42 132.2 27.62 132.54 27.95C132.82 28.24 132.98 28.63 132.98 29.09C132.98 29.97 132.46 30.49 131.72 30.71L133.15 32.71H132.06L130.76 30.87H129.6V32.71H128.67V27.42H128.65ZM130.94 30.04C131.6 30.04 132.03 29.69 132.03 29.16V29.14C132.03 28.57 131.62 28.26 130.94 28.26H129.59V30.03H130.95L130.94 30.04Z" fill="#797C81" style="fill: rgb(121, 124, 129) !important;"/>
<path d="M134.41 30.08C134.41 28.56 135.53 27.33 137.14 27.33C138.11 27.33 138.7 27.67 139.21 28.15L138.61 28.84C138.19 28.45 137.73 28.18 137.13 28.18C136.12 28.18 135.38 29.01 135.38 30.05V30.07C135.38 31.11 136.11 31.95 137.13 31.95C137.78 31.95 138.19 31.69 138.65 31.26L139.25 31.86C138.7 32.44 138.09 32.8 137.1 32.8C135.56 32.8 134.41 31.6 134.41 30.08Z" fill="#797C81" style="fill: rgb(121, 124, 129) !important;"/>
<path d="M140.75 27.42H141.68V29.62H144.2V27.42H145.13V32.71H144.2V30.48H141.68V32.71H140.75V27.42Z" fill="#797C81" style="fill: rgb(121, 124, 129) !important;"/>
<path d="M149.93 30.06V30.04C149.93 29.45 150.42 28.98 150.99 28.98C151.56 28.98 152.06 29.45 152.06 30.04V30.06C152.06 30.65 151.58 31.12 150.99 31.12C150.4 31.12 149.93 30.65 149.93 30.06Z" fill="#797C81" style="fill: rgb(121, 124, 129) !important;"/>
<path d="M156.87 27.42H160.81V28.27H157.8V29.71H160.47V30.56H157.8V32.71H156.87V27.42Z" fill="#797C81" style="fill: rgb(121, 124, 129) !important;"/>
<path d="M162.08 30.08C162.08 28.58 163.23 27.33 164.85 27.33C166.47 27.33 167.61 28.56 167.61 30.05V30.07C167.61 31.56 166.46 32.8 164.84 32.8C163.22 32.8 162.08 31.57 162.08 30.08ZM166.63 30.08C166.63 29.04 165.88 28.19 164.83 28.19C163.78 28.19 163.05 29.03 163.05 30.06V30.08C163.05 31.11 163.8 31.96 164.85 31.96C165.9 31.96 166.63 31.12 166.63 30.09V30.08Z" fill="#797C81" style="fill: rgb(121, 124, 129) !important;"/>
<path d="M169.18 30.47V27.43H170.11V30.44C170.11 31.42 170.62 31.95 171.45 31.95C172.28 31.95 172.78 31.45 172.78 30.48V27.44H173.71V30.44C173.71 32.02 172.82 32.81 171.44 32.81C170.06 32.81 169.19 32.02 169.19 30.48L169.18 30.47Z" fill="#797C81" style="fill: rgb(121, 124, 129) !important;"/>
<path d="M175.52 27.42H176.38L179.21 31.08V27.42H180.12V32.71H179.34L176.43 28.95V32.71H175.52V27.42Z" fill="#797C81" style="fill: rgb(121, 124, 129) !important;"/>
<path d="M182.02 27.42H183.99C185.65 27.42 186.8 28.56 186.8 30.05V30.07C186.8 31.56 185.65 32.71 183.99 32.71H182.02V27.42ZM183.99 31.86C185.1 31.86 185.82 31.11 185.82 30.08C185.82 29.03 185.1 28.27 183.99 28.27H182.95V31.86H183.99Z" fill="#797C81" style="fill: rgb(121, 124, 129) !important;"/>
<path d="M189.98 27.38H190.84L193.17 32.7H192.19L191.65 31.42H189.15L188.61 32.7H187.66L189.99 27.38H189.98ZM191.31 30.6L190.4 28.49L189.49 30.6H191.31Z" fill="#797C81" style="fill: rgb(121, 124, 129) !important;"/>
<path d="M195.23 28.28H193.55V27.42H197.84V28.28H196.16V32.71H195.22V28.28H195.23Z" fill="#797C81" style="fill: rgb(121, 124, 129) !important;"/>
<path d="M199.41 27.42H200.34V32.71H199.41V27.42Z" fill="#797C81" style="fill: rgb(121, 124, 129) !important;"/>
<path d="M202.05 30.08C202.05 28.58 203.2 27.33 204.82 27.33C206.44 27.33 207.58 28.56 207.58 30.05V30.07C207.58 31.56 206.43 32.8 204.81 32.8C203.19 32.8 202.05 31.57 202.05 30.08ZM206.6 30.08C206.6 29.04 205.85 28.19 204.8 28.19C203.75 28.19 203.02 29.03 203.02 30.06V30.08C203.02 31.11 203.77 31.96 204.82 31.96C205.87 31.96 206.6 31.12 206.6 30.09V30.08Z" fill="#797C81" style="fill: rgb(121, 124, 129) !important;"/>
<path d="M209.24 27.42H210.1L212.93 31.08V27.42H213.84V32.71H213.06L210.14 28.95V32.71H209.23V27.42H209.24Z" fill="#797C81" style="fill: rgb(121, 124, 129) !important;"/>
<path d="M215.8 9.33998V7.08998H214.54C213.71 7.15998 213.55 8.00998 213.55 8.00998V9.17998H214.73V9.35998C214.73 10.06 214.41 10.56 213.76 10.69V11.62C214.94 11.5 215.79 10.72 215.79 9.31998" fill="#797C81" style="fill: rgb(121, 124, 129) !important;"/>
<path d="M45.02 18.87L46.61 16.98C48.05 18.23 49.48 18.93 51.35 18.93C52.98 18.93 54.01 18.18 54.01 17.04V17C54.01 15.93 53.41 15.35 50.62 14.7C47.43 13.93 45.62 12.99 45.62 10.22V10.18C45.62 7.60999 47.76 5.82999 50.75 5.82999C52.94 5.82999 54.68 6.49999 56.2 7.71999L54.78 9.70999C53.43 8.69999 52.08 8.16999 50.71 8.16999C49.17 8.16999 48.27 8.95999 48.27 9.94999V9.98999C48.27 11.15 48.96 11.66 51.83 12.35C55 13.12 56.66 14.26 56.66 16.75V16.79C56.66 19.6 54.45 21.27 51.3 21.27C49 21.27 46.84 20.48 45.04 18.87H45.02Z" fill="#797C81" style="fill: rgb(121, 124, 129) !important;"/>
<path d="M58.16 15.44V15.4C58.16 12.16 60.46 9.49998 63.69 9.49998C67.29 9.49998 69.12 12.33 69.12 15.59C69.12 15.83 69.1 16.06 69.08 16.32H60.76C61.04 18.16 62.35 19.2 64.02 19.2C65.29 19.2 66.19 18.73 67.09 17.85L68.61 19.2C67.54 20.49 66.06 21.32 63.98 21.32C60.7 21.32 58.17 18.94 58.17 15.44H58.16ZM66.55 14.6C66.38 12.93 65.39 11.62 63.68 11.62C62.09 11.62 60.98 12.84 60.74 14.6H66.55Z" fill="#797C81" style="fill: rgb(121, 124, 129) !important;"/>
<path d="M106.81 15.44V15.4C106.81 12.16 109.1 9.49998 112.34 9.49998C115.94 9.49998 117.76 12.33 117.76 15.59C117.76 15.83 117.74 16.06 117.72 16.32H109.4C109.68 18.16 110.99 19.2 112.66 19.2C113.93 19.2 114.83 18.73 115.73 17.85L117.25 19.2C116.18 20.49 114.7 21.32 112.62 21.32C109.34 21.32 106.81 18.94 106.81 15.44ZM115.19 14.6C115.02 12.93 114.03 11.62 112.32 11.62C110.73 11.62 109.62 12.84 109.38 14.6H115.19Z" fill="#797C81" style="fill: rgb(121, 124, 129) !important;"/>
<path d="M124.53 13.59V13.55C124.53 9.27998 127.73 5.78998 132.27 5.78998C135.04 5.78998 136.71 6.74998 138.15 8.12998L136.46 10.08C135.26 8.95998 133.97 8.21998 132.26 8.21998C129.38 8.21998 127.3 10.58 127.3 13.52V13.56C127.3 16.5 129.38 18.9 132.26 18.9C134.1 18.9 135.28 18.15 136.57 16.95L138.26 18.66C136.7 20.29 134.98 21.32 132.17 21.32C127.79 21.32 124.53 17.91 124.53 13.6V13.59Z" fill="#797C81" style="fill: rgb(121, 124, 129) !important;"/>
<path d="M156.75 9.72998H154.16V21.05H156.75V9.72998Z" fill="#797C81" style="fill: rgb(121, 124, 129) !important;"/>
<path d="M70.49 15.41V15.37C70.49 11.62 72.94 9.48998 75.53 9.48998C77.32 9.48998 78.45 10.43 79.23 11.48V9.28998H81.72V21.04H79.23V19.15C78.43 20.33 77.3 21.27 75.53 21.27C72.98 21.27 70.49 19.15 70.49 15.39V15.41ZM79.27 15.41V15.37C79.27 13.18 77.79 11.75 76.13 11.75C74.47 11.75 73.01 13.12 73.01 15.37V15.41C73.01 17.6 74.45 19.03 76.13 19.03C77.81 19.03 79.27 17.57 79.27 15.41Z" fill="#797C81" style="fill: rgb(121, 124, 129) !important;"/>
<path d="M180.15 9.72998H182.75V12.28C183.46 10.59 184.77 9.42998 186.76 9.50998V12.26H186.61C184.34 12.26 182.75 13.74 182.75 16.74V21.05H180.15V9.72998Z" fill="#797C81" style="fill: rgb(121, 124, 129) !important;"/>
<path d="M90.96 11.96V9.72998H87.92V4.66998H86.4C85.78 4.68998 85.38 5.06998 85.32 5.84998V9.72998H83.88V11.96H85.32V17.92C85.32 20.41 86.67 21.25 88.58 21.25C89.54 21.25 90.27 21.04 90.92 20.67V18.55C90.4 18.81 89.89 18.94 89.31 18.94C88.43 18.94 87.92 18.53 87.92 17.52V11.97H90.96V11.96Z" fill="#797C81" style="fill: rgb(121, 124, 129) !important;"/>
<path d="M99.49 11.96V9.72998H96.45V4.66998H94.93C94.3 4.68998 93.89 5.07998 93.85 5.87998V9.72998H92.41V11.96H93.85V17.92C93.85 20.41 95.2 21.25 97.11 21.25C98.08 21.25 98.8 21.04 99.45 20.67V18.55C98.93 18.81 98.42 18.94 97.84 18.94C96.96 18.94 96.45 18.53 96.45 17.52V11.97H99.49V11.96Z" fill="#797C81" style="fill: rgb(121, 124, 129) !important;"/>
<path d="M103.16 4.66999C102.56 4.66999 102.15 5.01999 102.06 5.72999V21.05H104.66V4.65999H103.16V4.66999Z" fill="#797C81" style="fill: rgb(121, 124, 129) !important;"/>
<path d="M146.85 9.49999C145.09 9.49999 144.04 10.42 143.31 11.49V4.67999H141.74C141.14 4.71999 140.74 5.11999 140.71 5.91999V21.06H143.3V14.67C143.3 12.91 144.35 11.86 145.85 11.86C147.35 11.86 148.27 12.87 148.27 14.63V21.06H150.86V13.85C150.86 11.21 149.38 9.49999 146.83 9.49999H146.85Z" fill="#797C81" style="fill: rgb(121, 124, 129) !important;"/>
<path d="M161.31 4.65999C160.73 4.69999 160.35 5.07999 160.3 5.80999V21.05H162.9V4.65999H161.32H161.31Z" fill="#797C81" style="fill: rgb(121, 124, 129) !important;"/>
<path d="M175.29 4.67999C174.78 4.71999 174.43 5.00999 174.32 5.58999V11.5C173.51 10.45 172.33 9.50999 170.46 9.50999C167.75 9.50999 165.21 11.63 165.21 15.39V15.43C165.21 19.18 167.8 21.31 170.46 21.31C172.3 21.31 173.48 20.36 174.32 19.19V21.08H176.91V4.69999H175.29V4.67999ZM174.36 15.42C174.36 17.59 172.82 19.04 171.08 19.04C169.34 19.04 167.82 17.6 167.82 15.42V15.38C167.82 13.13 169.3 11.76 171.08 11.76C172.86 11.76 174.36 13.2 174.36 15.38V15.42Z" fill="#797C81" style="fill: rgb(121, 124, 129) !important;"/>
<path d="M187.99 15.44V15.4C187.99 12.16 190.28 9.49998 193.52 9.49998C197.12 9.49998 198.95 12.33 198.95 15.59C198.95 15.83 198.93 16.06 198.91 16.32H190.59C190.87 18.16 192.18 19.2 193.85 19.2C195.12 19.2 196.02 18.73 196.92 17.85L198.44 19.2C197.37 20.49 195.89 21.32 193.81 21.32C190.53 21.32 188 18.94 188 15.44H187.99ZM196.37 14.6C196.2 12.93 195.21 11.62 193.5 11.62C191.91 11.62 190.8 12.84 190.56 14.6H196.37Z" fill="#797C81" style="fill: rgb(121, 124, 129) !important;"/>
<path d="M201.57 9.72998H204.17V11.49C204.9 10.42 205.95 9.49998 207.71 9.49998C210.26 9.49998 211.74 11.22 211.74 13.85V21.06H209.15V14.63C209.15 12.87 208.27 11.86 206.73 11.86C205.19 11.86 204.18 12.91 204.18 14.67V21.06H201.58V9.73998L201.57 9.72998Z" fill="#797C81" style="fill: rgb(121, 124, 129) !important;"/>
<path d="M216.01 19.58L217.17 17.82C218.39 18.74 219.72 19.21 220.88 19.21C222.04 19.21 222.64 18.74 222.64 17.99V17.95C222.64 17.07 221.44 16.77 220.11 16.36C218.44 15.89 216.57 15.2 216.57 13.04V13C216.57 10.86 218.35 9.54999 220.6 9.54999C222.02 9.54999 223.56 10.05 224.76 10.84L223.73 12.68C222.64 12.02 221.48 11.61 220.53 11.61C219.52 11.61 218.94 12.08 218.94 12.75V12.79C218.94 13.61 220.16 13.95 221.49 14.38C223.14 14.9 225.01 15.65 225.01 17.68V17.72C225.01 20.1 223.16 21.28 220.81 21.28C219.2 21.28 217.42 20.7 216.01 19.59V19.58Z" fill="#797C81" style="fill: rgb(121, 124, 129) !important;"/>
<path d="M154.05 6.04998C154.05 5.24998 154.7 4.60999 155.5 4.60999C156.3 4.60999 156.95 5.25998 156.95 6.04998C156.95 6.83998 156.3 7.49998 155.5 7.49998C154.7 7.49998 154.05 6.84998 154.05 6.04998Z" fill="#797C81" style="fill: rgb(121, 124, 129) !important;"/>
<path fill-rule="evenodd" clip-rule="evenodd" d="M26.95 8.44999C25.5 7.02999 23.64 6.17999 21.66 5.79999C19.58 5.39999 17.32 5.51999 15.32 6.20999C14.95 6.33999 14.59 6.48999 14.24 6.64999C14.02 6.74999 13.81 6.86999 13.6 6.98999C11.87 7.98999 10.12 9.83999 9.46 12.23C9.25 13 9.13 13.78 9.13 14.55C9.13 16.19 9.65 17.75 10.84 18.99C12.35 20.55 14.09 20.9 15.79 20.9C15.81 20.9 15.83 20.9 15.86 20.9C16.98 20.9 18.1 20.59 19.13 20.16C19.9 19.84 20.63 19.41 21.37 19.02C22.11 18.63 22.8 18.28 23.51 17.91C24.22 17.54 24.95 17.17 25.67 16.8C25.79 16.74 25.92 16.67 26.04 16.61C25.76 16.61 25.46 16.6 25.18 16.6C24.59 16.6 24.06 16.61 23.94 16.62C23.75 16.62 23.58 16.62 23.42 16.62C22.88 16.62 22.53 16.64 22.36 16.68C22.01 16.75 21.72 16.78 21.5 17.03C21.38 17.18 21.32 17.24 21.16 17.38C21.11 17.43 21.05 17.48 20.97 17.53C20.89 17.58 20.77 17.61 20.65 17.61C20.59 17.61 20.53 17.61 20.46 17.59C20.32 17.56 20.21 17.48 20.13 17.38C20.05 17.28 19.98 17.17 19.88 17.03C19.78 16.87 19.45 16.62 19.33 16.58C18.73 16.34 18.38 16.34 17.82 16.32C17.77 16.32 17.73 16.32 17.68 16.32C17.17 16.32 16.61 16.44 16.2 16.55C16.5 16.72 16.66 16.94 16.69 16.98C16.89 17.26 16.95 17.56 16.95 17.81C16.95 18.13 16.86 18.35 16.86 18.37C16.66 18.85 16.24 19.05 16.18 19.08C15.97 19.18 15.75 19.21 15.55 19.21C15.27 19.21 15.05 19.15 15.04 19.15C14.54 19.02 14.22 18.74 14.04 18.49C13.87 18.26 13.8 18.06 13.79 18.02C13.72 17.83 13.69 17.63 13.69 17.46C13.69 17.3 13.71 17.16 13.73 17.04C13.51 17.12 13.3 17.15 13.12 17.15C12.92 17.15 12.74 17.12 12.62 17.08C12.62 17.08 12.47 17.04 12.47 17.03C12.08 16.88 11.82 16.53 11.66 16.32C11.56 16.18 11.41 15.93 11.35 15.73C11.33 15.67 11.31 15.6 11.31 15.5C11.31 15.47 11.31 15.43 11.32 15.39C11.34 15.29 11.38 15.23 11.43 15.18C11.47 15.13 11.52 15.09 11.56 15.05C11.59 15.03 11.6 15.02 11.64 15C11.85 14.91 12.06 14.79 12.25 14.67C12.64 14.43 12.96 14.17 13.21 13.93C13.54 13.61 13.69 13.32 13.77 13.16C13.8 13.11 13.81 13.07 13.83 13.03C13.83 13.02 13.84 13 13.88 12.97C13.9 12.95 13.94 12.93 14.01 12.93C14.18 12.93 14.29 13.04 14.36 13.16C14.43 13.28 14.47 13.43 14.47 13.6C14.47 13.89 14.36 14.23 14.07 14.56C13.82 14.85 13.62 15.02 13.22 15.29C13 15.44 12.97 15.45 12.74 15.57C12.67 15.6 12.61 15.64 12.59 15.67C12.78 15.96 12.98 16.07 13.33 16.08C13.46 16.08 13.62 16.06 13.8 16.01C14.12 15.93 14.45 15.78 14.77 15.6C15.2 15.36 15.4 15.25 15.5 15.2C15.53 15.18 15.56 15.17 15.59 15.15C15.62 15.13 15.65 15.12 15.67 15.11C16.36 14.83 17.14 14.77 17.73 14.77C18.25 14.77 18.61 14.82 18.62 14.82C20.19 15.08 21.34 15.18 22.37 15.18C23.03 15.18 23.64 15.14 24.29 15.08C25.62 14.95 26.5 14.43 27.25 13.86C27.39 13.75 27.52 13.64 27.63 13.53C27.63 13.53 27.62 13.53 27.61 13.53C27.49 13.49 27.29 13.46 27 13.46C26.92 13.46 26.84 13.46 26.75 13.46C25.69 13.52 24.23 13.8 22.71 13.81C22.59 13.81 22.48 13.81 22.36 13.81C20.98 13.81 19.56 13.66 18.54 13.04C17.98 12.7 17.62 12.18 17.53 11.73C17.5 11.63 17.49 11.53 17.49 11.45C17.49 11.26 17.55 11.13 17.64 11.04C17.68 11.01 17.7 10.98 17.81 10.97C17.83 10.97 17.86 10.97 17.89 10.98C17.96 11.01 17.98 11.04 17.99 11.06C18 11.08 18.01 11.1 18.02 11.11C18.03 11.14 18.04 11.17 18.06 11.2C18.09 11.27 18.13 11.35 18.19 11.45C18.32 11.65 18.54 11.91 18.99 12.14C19.66 12.49 20.63 12.63 21.67 12.62C22.02 12.62 22.38 12.61 22.75 12.58C24.17 12.5 25.45 12.28 26.58 12.17C26.72 12.15 26.87 12.15 27.03 12.15C27.5 12.15 27.99 12.23 28.33 12.49C28.37 12.52 28.38 12.52 28.38 12.52C28.38 12.52 28.4 12.52 28.43 12.49C28.48 12.41 28.52 12.33 28.55 12.27C28.65 12.09 28.7 11.87 28.7 11.61C28.7 10.71 28.05 9.40999 26.96 8.41999L26.95 8.44999ZM20.69 10.1C20.67 10.52 20.32 10.85 19.89 10.85C19.45 10.85 19.09 10.5 19.09 10.06C19.09 9.61999 19.45 9.27999 19.89 9.27999C20.33 9.27999 20.68 9.62999 20.69 10.06C20.69 10.06 20.69 10.09 20.69 10.1Z" fill="#EC7625" style="fill: rgb(236, 118, 37) !important;"/>
<path fill-rule="evenodd" clip-rule="evenodd" d="M35.72 19.97C35.72 19.97 35.75 20.06 35.76 20.11C35.76 20.79 35.7 21.5 35.57 22.04C33.72 29.97 26.58 35.97 18.04 35.97C14.71 35.97 11.59 35.07 8.91 33.49C8.91 33.49 8.12 33.08 6.76 32.02C6.1 31.5 5.59 31.05 5.01 30.42C4.2 29.52 4.19 28.52 4.2 28.21C4.2 27.83 4.31 27.47 4.61 27.17C4.76 26.99 5 26.9 5.21 26.9C5.34 26.9 5.46 26.94 5.53 26.99C6.01 27.35 6.27 27.66 6.71 28.01C7.6 28.7 8.48 29.19 9.3 29.56C10.18 29.95 10.79 30.07 11.32 30.09C11.73 30.11 12.11 29.96 12.31 29.8C12.51 29.63 12.6 29.43 12.62 29.35C12.62 29.29 12.6 29.22 12.56 29.18C12.49 29.11 12.31 29.07 12.16 29.03C11.72 28.91 10.88 28.66 9.82 28.16C9.04 27.82 8.38 27.45 7.53 26.8C7.14 26.5 6.08 25.52 5.92 25.39C5.76 25.27 5.56 25.12 5.25 25.11C5.09 25.11 4.68 25.23 4.37 25.41C4.06 25.59 3.62 25.97 3.42 26.24C3.15 26.61 3.04 27.06 3.05 27.56C3.05 27.9 2.92 27.76 2.89 27.71C1.05 24.85 0.0599995 21.58 0.0599995 17.98C0.0599995 8.03999 8.11 -0.0100098 18.05 -0.0100098C27.29 -0.0100098 34.88 6.92999 35.93 16C36.01 16.7 36.05 16.94 35.94 16.99C35.85 17.03 35.62 16.41 34.92 15.76C34.46 15.33 33.99 14.99 33.67 14.84C33.54 14.79 33.35 14.62 33.27 14.52C33.22 14.46 33.19 14.37 33.15 14.25C33.11 14.14 33.05 13.99 32.91 13.88C32.79 13.79 32.66 13.74 32.53 13.74C32.39 13.74 32.25 13.79 32.14 13.87C32.01 13.97 31.81 14.14 31.61 14.24C31.34 14.38 30.71 14.59 30.12 14.81C28.78 15.32 27.78 15.77 27.72 15.7C27.65 15.62 28.73 15.09 29.77 13.58C30.36 12.73 30.51 11.6 30.24 10.54C29.87 9.11999 28.63 7.55999 27.17 6.41999C25.94 5.46999 24.53 4.78999 23.08 4.37999C21.5 3.93999 19.76 3.80999 18.13 3.92999C11.59 4.37999 8.06 9.07999 7.52 13.34C7.18 16.05 8.09 19.03 10.22 20.77C12.47 22.62 15.68 22.9 18.41 22.1C20.66 21.44 22.68 20.18 24.68 18.99C26.08 18.16 27.48 17.31 28.98 16.68C30.15 16.19 31.48 15.8 32.75 16.1C33.87 16.36 34.72 17.17 35.31 18.13C35.34 18.18 35.39 18.26 35.33 18.35C35.29 18.41 35.23 18.39 35.07 18.39C34.63 18.39 34.13 18.56 33.65 18.84C33.17 19.11 32.71 19.5 32.37 19.94C31.63 20.85 31.2 21.93 30.52 22.93C29.86 23.98 29.09 25.03 28.23 26.01C26.53 27.93 24.3 29.58 22.47 29.64C22.4 29.64 22.34 29.64 22.28 29.64C21.9 29.64 21.64 29.58 21.46 29.52C21.28 29.45 21.19 29.38 21.1 29.33C21 29.27 20.92 29.17 20.84 29.09C20.78 29.03 20.71 28.98 20.61 28.98C20.53 28.98 20.44 29.02 20.4 29.09C20.35 29.15 20.34 29.22 20.34 29.29C20.34 29.45 20.41 29.63 20.57 29.86C20.87 30.31 21.43 30.77 22.56 30.78H22.63C24.9 30.78 27.28 28.99 29.14 27.05C30.09 26.05 30.94 24.97 31.65 23.9C32.4 22.84 32.91 21.72 33.48 21.09C34.43 19.96 35.17 19.87 35.43 19.87C35.47 19.87 35.66 19.85 35.72 19.96V19.97ZM21.41 27.06C21.41 26.57 21.82 26.18 22.31 26.18C22.8 26.18 23.21 26.57 23.21 27.06C23.21 27.55 22.8 27.94 22.31 27.94C21.82 27.94 21.41 27.55 21.41 27.06Z" fill="#0080A2" style="fill: rgb(0, 128, 162) !important;"/>
</g>
<defs style="fill: rgb(0, 124, 158) !important;">
<clipPath id="clip0_1036_162" style="fill: rgb(0, 124, 158) !important;">
<rect width="232" height="36" fill="white" style="fill: rgb(255, 255, 255) !important;"/>
</clipPath>
</defs>
</svg>